<svg enable-background="new 0 0 109.918 127.221" viewBox="0 0 109.918 127.221" xmlns="http://www.w3.org/2000/svg"><path clip-rule="evenodd" d="m83.274 7.947h-75.328v107.611l2.071 2.072 12.172-12.171c1.551-1.551 4.066-1.551 5.618 0l12.171 12.171 12.172-12.171c1.551-1.551 4.066-1.551 5.618 0l12.171 12.171 12.171-12.171c1.552-1.551 4.067-1.551 5.618 0l12.172 12.17 2.071-2.072v-88.913zm-79.301-7.947h80.947c1.106 0 2.106.452 2.826 1.181l21.008 21.008c.776.775 1.164 1.792 1.164 2.809v92.205c0 1.106-.451 2.106-1.181 2.826l-6.027 6.028c-1.552 1.551-4.067 1.551-5.618 0l-12.172-12.171-12.172 12.172c-1.551 1.551-4.066 1.551-5.617 0l-12.172-12.172-12.171 12.172c-1.551 1.551-4.067 1.551-5.619 0l-12.171-12.172-12.171 12.172c-1.551 1.551-4.067 1.551-5.618 0l-6.045-6.045c-.776-.776-1.164-1.793-1.164-2.81v-113.229c0-2.195 1.779-3.974 3.973-3.974z" fill="#0e0e12" fill-rule="evenodd"/><path clip-rule="evenodd" d="m3.973 3.974h80.947l21.025 21.025v92.204l-6.045 6.045-14.98-14.98-14.981 14.98-14.98-14.98-14.98 14.98-14.981-14.98-14.98 14.98-6.045-6.045z" fill="#fff" fill-rule="evenodd"/><path clip-rule="evenodd" d="m80.946 24.999v-21.025h.001c0-1.017.388-2.034 1.163-2.809 1.552-1.552 4.067-1.552 5.619 0l21.008 21.008c.729.72 1.181 1.72 1.181 2.826 0 2.194-1.779 3.973-3.973 3.973h-21.025c-2.194 0-3.974-1.78-3.974-3.973m7.948-11.434v7.46h7.46z" fill="#0e0e12" fill-rule="evenodd"/><path clip-rule="evenodd" d="m84.92 3.974v21.025h21.025z" fill="#e2e7ee" fill-rule="evenodd"/><path clip-rule="evenodd" d="m39.979 115.798-14.981-14.981-14.98 14.981-6.045-6.045v7.45l6.045 6.045 14.98-14.98 14.981 14.98 14.98-14.98 14.98 14.98 14.981-14.98 14.98 14.98 6.045-6.045v-7.45l-6.045 6.045-14.98-14.981-14.981 14.981-14.98-14.981z" fill="#e2e7ee" fill-rule="evenodd"/><g fill="#0e0e12"><path d="m25.393 37.043h21.025v3.972h-21.025z" transform="matrix(-.7071 .7071 -.7071 -.7071 88.8919 41.2401)"/><path d="m25.393 37.042h21.025v3.973h-21.025z" transform="matrix(.7071 .7071 -.7071 .7071 38.1134 -13.9579)"/><path d="m63.501 37.043h21.025v3.973h-21.025z" transform="matrix(-.7071 .7071 -.7071 -.7071 153.9471 14.2946)"/><path d="m63.501 37.043h21.024v3.973h-21.024z" transform="matrix(.7071 .7071 -.7071 .7071 49.277 -40.9043)"/><path d="m25.13 66.246c-1.097 0-1.986-.89-1.986-1.987s.89-1.986 1.986-1.986h59.658c1.098 0 1.987.89 1.987 1.986 0 1.097-.89 1.987-1.987 1.987z"/><path d="m82.802 66.246h-12.322v6.161c0 1.692.694 3.232 1.812 4.35s2.657 1.811 4.35 1.811 3.231-.693 4.35-1.811c1.117-1.118 1.811-2.657 1.811-4.35v-6.161zm-14.308-3.974h16.294 1.987v1.986 8.147c0 2.789-1.14 5.323-2.976 7.159s-4.369 2.975-7.158 2.975-5.323-1.14-7.159-2.975c-1.835-1.835-2.975-4.37-2.975-7.159v-8.147-1.986z"/><path d="m74.655 64.259c0-1.097.889-1.986 1.986-1.986s1.986.89 1.986 1.986v5.52c0 1.097-.89 1.986-1.986 1.986-1.098 0-1.986-.89-1.986-1.986z"/></g><path clip-rule="evenodd" d="m76.642 71.765c-1.098 0-1.986-.89-1.986-1.986v-3.533h-4.176v6.161c0 1.692.694 3.232 1.812 4.35s2.657 1.811 4.35 1.811 3.231-.693 4.35-1.811c1.117-1.118 1.811-2.657 1.811-4.35v-6.161h-4.174v3.533c-.001 1.096-.891 1.986-1.987 1.986" fill="#e2e7ee" fill-rule="evenodd"/></svg>