<svg version="1" xmlns="http://www.w3.org/2000/svg" width="533.333" height="533.333" viewBox="0 0 400 400">
  <path d="M0 200v200h400V0H0v200zm126-.5V295h-8.8c-14.2 0-12.6 10.9-13-92.9-.2-62.5 0-89.7.8-92.4 1.4-4.7 3.3-5.6 13.3-5.6l7.7-.1v95.5zm40.1-93.6l2.4 1.9.3 46.9c.2 32.2 0 48-.8 50.6-1.4 4.7-3.7 5.7-13.6 5.7H147V104h8.4c6.8 0 8.8.4 10.7 1.9zm44.9 93.6V295h-8.9c-14.6 0-13.1 10.9-13.1-95.7v-90.4l2.5-2.4c2.2-2.3 3.2-2.5 11-2.5h8.5v95.5zm39.4-93.4l2.6 2V295h-8.7c-6.6 0-9.1-.4-10.5-1.7-1.7-1.5-1.8-5.8-1.8-95.5V104h7.9c6.4 0 8.3.4 10.5 2.1zm43.2 1c1.8 2 1.9 5.2 2.2 90.8.2 62.4 0 89.7-.8 92.4-1.4 4.7-3.7 5.7-13.6 5.7H274V105h8.8c7.8 0 9.1.3 10.8 2.1z"/>
</svg>