<?xml version="1.0" standalone="no"?>
<!DOCTYPE svg PUBLIC "-//W3C//DTD SVG 20010904//EN"
 "http://www.w3.org/TR/2001/REC-SVG-20010904/DTD/svg10.dtd">
<svg version="1.0" xmlns="http://www.w3.org/2000/svg"
 width="400.000000pt" height="400.000000pt" viewBox="0 0 400.000000 400.000000"
 preserveAspectRatio="xMidYMid meet">
<metadata>
Created by potrace 1.11, written by Peter Selinger 2001-2013
</metadata>
<g transform="translate(0.000000,400.000000) scale(0.100000,-0.100000)"
fill="#000000" stroke="none">
<path d="M0 2000 l0 -2000 2000 0 2000 0 0 2000 0 2000 -2000 0 -2000 0 0
-2000z m1260 5 l0 -955 -88 0 c-142 0 -126 -109 -130 929 -2 625 0 897 8 924
14 47 33 56 133 56 l77 1 0 -955z m401 936 l24 -19 3 -469 c2 -322 0 -480 -8
-506 -14 -47 -37 -57 -136 -57 l-74 0 0 535 0 535 84 0 c68 0 88 -4 107 -19z
m449 -936 l0 -955 -89 0 c-146 0 -131 -109 -131 957 l0 904 25 24 c22 23 32
25 110 25 l85 0 0 -955z m394 934 l26 -20 0 -935 0 -934 -87 0 c-66 0 -91 4
-105 17 -17 15 -18 58 -18 955 l0 938 79 0 c64 0 83 -4 105 -21z m432 -10 c18
-20 19 -52 22 -908 2 -624 0 -897 -8 -924 -14 -47 -37 -57 -136 -57 l-74 0 0
955 0 955 88 0 c78 0 91 -3 108 -21z"/>
</g>
</svg>
