<svg xmlns="http://www.w3.org/2000/svg" width="50" height="30" viewBox="0 0 50 30">
    <g fill="none" fill-rule="evenodd">
        <rect width="50" height="30" fill="#0072CE" rx="4"/>
        <path fill="#FFF" d="M42.204 17.333h-1.767c-.176 0-.293.006-.392.073-.102.065-.142.163-.142.29 0 .153.087.257.212.302.102.035.212.046.374.046l.525.014c.53.013.884.104 1.1.325.039.031.063.066.09.1v-1.15zm0 2.666c-.236.343-.695.517-1.316.517h-1.871v-.867h1.864c.185 0 .314-.024.392-.1a.355.355 0 0 0 .115-.264.332.332 0 0 0-.119-.267c-.07-.062-.172-.09-.341-.09-.91-.03-2.046.028-2.046-1.252 0-.586.374-1.204 1.39-1.204h1.932v-.804H40.41c-.542 0-.935.13-1.213.33v-.33h-2.654c-.424 0-.922.105-1.157.33v-.33h-4.739v.33c-.377-.271-1.013-.33-1.307-.33h-3.125v.33c-.298-.288-.962-.33-1.366-.33h-3.498l-.8.863-.75-.863h-5.224v5.642h5.126l.825-.877.777.877 3.16.003v-1.327h.31c.42.006.914-.01 1.35-.199v1.523h2.607v-1.47h.126c.16 0 .176.006.176.166v1.304h7.918c.502 0 1.028-.128 1.319-.361v.361h2.511c.523 0 1.033-.073 1.422-.26v-1.051zm-3.867-1.616c.19.195.29.44.29.857 0 .87-.545 1.276-1.522 1.276h-1.888v-.867h1.88c.184 0 .314-.024.396-.1a.358.358 0 0 0 .114-.264.347.347 0 0 0-.118-.267c-.074-.062-.176-.09-.345-.09-.906-.03-2.042.028-2.042-1.252 0-.586.37-1.204 1.386-1.204h1.943v.861h-1.778c-.176 0-.29.007-.388.073-.106.066-.146.163-.146.291 0 .153.09.256.212.301.103.036.213.046.378.046l.521.014c.527.013.888.104 1.107.325zm-8.746-.25c-.13.077-.29.084-.478.084h-1.178v-.908h1.194c.172 0 .345.003.462.073.126.065.2.19.2.363a.436.436 0 0 1-.2.389zm.586.504c.215.08.392.222.474.34.137.197.157.381.161.737v.802h-.973v-.506c0-.243.023-.603-.157-.791-.141-.145-.357-.18-.71-.18h-1.037v1.477h-.974v-4.044H29.2c.49 0 .848.022 1.166.191.306.184.499.437.499.898 0 .646-.432.975-.687 1.076zm1.224-2.165h3.235v.837h-2.27v.735h2.215v.825h-2.215v.804l2.27.004v.84h-3.235v-4.045zm-6.54 1.866H23.61v-1.03h1.264c.35 0 .593.143.593.496 0 .35-.232.534-.605.534zm-2.217 1.81l-1.489-1.647 1.489-1.595v3.242zm-3.844-.475h-2.383v-.804h2.128v-.825h-2.128v-.735h2.43l1.06 1.178-1.107 1.186zm7.706-1.869c0 1.124-.84 1.356-1.688 1.356h-1.21v1.356h-1.883l-1.194-1.339-1.24 1.34h-3.84v-4.045h3.9l1.192 1.326 1.233-1.326h3.097c.769 0 1.633.213 1.633 1.332zM10.827 11.812l-.663-1.612-.66 1.612h1.323zm14.615-.642c-.133.08-.29.084-.48.084h-1.177v-.898h1.194c.169 0 .345.007.46.073.125.058.203.184.203.357 0 .177-.074.319-.2.384zm8.4.642l-.67-1.612-.668 1.612h1.338zm-15.658 1.745h-.994l-.003-3.167-1.406 3.167h-.85l-1.41-3.17v3.17H11.55l-.373-.902H9.16l-.376.902H7.73l1.736-4.043h1.44l1.649 3.828V9.514h1.582l1.268 2.742 1.165-2.742h1.614v4.043zm3.96 0h-3.238V9.514h3.238v.842h-2.268v.728h2.214v.83h-2.214v.806h2.268v.837zm4.566-2.954c0 .644-.432.977-.683 1.077.212.08.393.223.48.34.136.202.16.381.16.742v.795h-.978l-.004-.51c0-.243.024-.593-.153-.788-.141-.142-.357-.173-.706-.173h-1.04v1.47h-.97V9.515h2.23c.495 0 .86.013 1.173.193.307.181.49.445.49.896zm1.55 2.954h-.988V9.514h.989v4.043zm11.474 0h-1.373l-1.837-3.035v3.035H34.55l-.377-.902h-2.014l-.366.902H30.66c-.471 0-1.068-.104-1.405-.448-.341-.343-.518-.808-.518-1.543 0-.6.106-1.148.522-1.58.314-.323.804-.472 1.472-.472h.939v.866h-.92c-.353 0-.553.052-.745.24-.165.17-.279.492-.279.915 0 .433.087.746.267.95.15.16.42.208.675.208h.436l1.366-3.18h1.452l1.641 3.825V9.514h1.476l1.704 2.816V9.514h.992v4.043zM7.72 14.35h1.656l.374-.898h.836l.372.898h3.258v-.687l.291.69h1.692l.29-.7v.697h8.099l-.004-1.474h.156c.11.003.142.014.142.194v1.28h4.188v-.343c.338.18.864.343 1.555.343h1.762l.377-.898h.836l.369.898h3.395v-.853l.515.853h2.72V8.712h-2.692v.666l-.377-.666h-2.763v.666l-.347-.666h-3.732c-.625 0-1.174.087-1.618.33v-.33h-2.575v.33c-.282-.25-.667-.33-1.095-.33h-9.41l-.63 1.456-.65-1.456h-2.963v.666l-.326-.666H8.893l-1.174 2.681v2.958z"/>
    </g>
</svg>
