<svg xmlns="http://www.w3.org/2000/svg" width="12" height="10" viewBox="0 0 12 10">
    <g fill="none" fill-rule="evenodd">
        <path fill="none" d="M-2-3h15v15H-2z"/>
        <path fill="#0CBBD4" d="M10.65 4.16c.185 0 .344.069.475.205a.623.623 0 0 1-.021.908.629.629 0 0 1-.44.176H2.271l3.164 3.047a.647.647 0 0 1 .197.454.595.595 0 0 1-.183.454.615.615 0 0 1-.469.205.629.629 0 0 1-.439-.175L.205 5.259A.607.607 0 0 1 0 4.797c0-.18.068-.334.205-.461L4.512.176A.7.7 0 0 1 4.98 0c.176 0 .325.066.447.198a.658.658 0 0 1 .183.461.599.599 0 0 1-.205.454L2.241 4.16h8.408z"/>
    </g>
</svg>
