<svg xmlns="http://www.w3.org/2000/svg" width="56" height="56" viewBox="0 0 56 56">
    <g fill="none" fill-rule="evenodd">
        <path fill="none" d="M0 0h56v56H0z"/>
        <g fill="#0E0E12" fill-rule="nonzero">
            <path d="M47.006 24.51a2.41 2.41 0 0 0 0-3.02l-2.16-2.667a.803.803 0 0 1-.168-.629l.537-3.39a2.411 2.411 0 0 0-1.51-2.616L40.5 10.96a.799.799 0 0 1-.46-.46l-1.23-3.204a2.409 2.409 0 0 0-2.616-1.511l-3.389.537a.796.796 0 0 1-.628-.168l-2.667-2.16a2.413 2.413 0 0 0-3.021 0l-2.667 2.16a.79.79 0 0 1-.629.168l-3.388-.537a2.407 2.407 0 0 0-2.616 1.51l-1.23 3.203a.803.803 0 0 1-.46.461l-3.204 1.229a2.413 2.413 0 0 0-1.51 2.617l.537 3.389a.803.803 0 0 1-.169.628l-2.16 2.667a2.41 2.41 0 0 0 0 3.02l2.16 2.667a.803.803 0 0 1 .17.629l-.538 3.39a2.411 2.411 0 0 0 1.51 2.616L15.5 35.04c.211.08.38.249.46.46l.84 2.19v13.38a2.397 2.397 0 0 0 2.4 2.4 2.4 2.4 0 0 0 .862-.16l7.077-2.722a2.393 2.393 0 0 1 1.722 0l7.077 2.722a2.398 2.398 0 0 0 3.262-2.24V37.69l.84-2.19a.803.803 0 0 1 .46-.46l3.205-1.229a2.413 2.413 0 0 0 1.51-2.617l-.537-3.388a.803.803 0 0 1 .168-.63l2.16-2.666zM37.6 51.07a.789.789 0 0 1-.347.66.789.789 0 0 1-.74.087l-7.078-2.722a3.995 3.995 0 0 0-2.872 0l-7.077 2.722a.793.793 0 0 1-.74-.087.791.791 0 0 1-.346-.66V40c.426.204.911.292 1.405.215l3.389-.537a.797.797 0 0 1 .628.168l2.668 2.16a2.4 2.4 0 0 0 1.51.532c.536 0 1.073-.178 1.511-.532l2.667-2.16a.8.8 0 0 1 .628-.168l3.39.536c.492.077.977-.01 1.404-.215V51.07zm6.002-24.9a2.4 2.4 0 0 0-.504 1.886l.537 3.389a.804.804 0 0 1-.504.873l-3.204 1.228a2.406 2.406 0 0 0-1.38 1.381l-1.23 3.204a.805.805 0 0 1-.872.503l-3.389-.536a2.406 2.406 0 0 0-1.886.505l-2.666 2.16a.806.806 0 0 1-1.007 0l-2.667-2.16a2.401 2.401 0 0 0-1.887-.506l-3.389.537a.807.807 0 0 1-.872-.504l-1.23-3.203a2.406 2.406 0 0 0-1.38-1.38l-3.204-1.23a.805.805 0 0 1-.504-.871l.538-3.39a2.402 2.402 0 0 0-.505-1.886l-2.16-2.666a.803.803 0 0 1 0-1.007l2.16-2.667a2.4 2.4 0 0 0 .505-1.885l-.538-3.389a.804.804 0 0 1 .504-.873l3.204-1.229a2.406 2.406 0 0 0 1.38-1.38l1.23-3.204a.81.81 0 0 1 .872-.504l3.39.537c.67.105 1.358-.078 1.886-.505l2.665-2.16a.806.806 0 0 1 1.008 0l2.666 2.16a2.408 2.408 0 0 0 1.886.505l3.389-.537a.806.806 0 0 1 .872.504l1.23 3.203a2.406 2.406 0 0 0 1.38 1.38l3.204 1.23c.35.134.563.501.504.871l-.537 3.39c-.107.67.077 1.358.505 1.886l2.16 2.666a.803.803 0 0 1 0 1.007l-2.16 2.667z"/>
            <path d="M29.074 11.851a11.17 11.17 0 0 0-8.993 3.23A11.124 11.124 0 0 0 16.8 23a.8.8 0 1 0 1.6 0c0-2.564.998-4.975 2.812-6.789a9.585 9.585 0 0 1 7.709-2.767.786.786 0 0 0 .873-.72.8.8 0 0 0-.72-.873zM36.517 16.975a.8.8 0 0 0-.276 1.098 9.648 9.648 0 0 1 .661 8.525.8.8 0 1 0 1.485.598 11.262 11.262 0 0 0-.773-9.946.8.8 0 0 0-1.097-.275zM34.727 15.868a.8.8 0 0 0 .518-1.41 11.149 11.149 0 0 0-2.004-1.36.8.8 0 1 0-.749 1.415c.61.322 1.187.715 1.717 1.165.15.128.335.19.518.19zM35.354 29.222a.8.8 0 1 0-1.132 1.132l1.132 1.13a.798.798 0 0 0 1.13 0 .8.8 0 0 0 0-1.13l-1.13-1.132zM20.646 29.222l-1.13 1.132a.8.8 0 1 0 1.13 1.13l1.132-1.13a.8.8 0 1 0-1.132-1.132zM28 31.8a.8.8 0 0 0-.8.8v1.6a.8.8 0 1 0 1.6 0v-1.6a.8.8 0 0 0-.8-.8zM24.562 31.1a.801.801 0 0 0-1.05.423l-.625 1.473a.8.8 0 1 0 1.472.626l.626-1.472a.8.8 0 0 0-.423-1.05zM19.84 26.297a.8.8 0 0 0-1.04-.443l-1.484.6a.8.8 0 0 0 .6 1.484l1.483-.6a.8.8 0 0 0 .442-1.041zM32.338 31.6a.801.801 0 0 0-1.484.6l.6 1.483a.8.8 0 1 0 1.483-.599l-.6-1.483z"/>
        </g>
    </g>
</svg>
