<svg xmlns="http://www.w3.org/2000/svg" width="35" height="35"><g fill="none" fill-rule="evenodd"><path d="M0 0h35v35H0z"/><path fill="#FFF" d="M27.159 21.377c.234 0 .429.082.584.245a.819.819 0 0 1 .234.585.78.78 0 0 1-.234.573.793.793 0 0 1-.584.234h-2.643c.312.436.468.92.468 1.45 0 .67-.234 1.24-.702 1.707a2.31 2.31 0 0 1-1.695.702 2.31 2.31 0 0 1-1.696-.702 2.324 2.324 0 0 1-.701-1.707c0-.53.163-1.014.49-1.45h-3.764c.312.436.467.92.467 1.45 0 .67-.233 1.24-.701 1.707a2.31 2.31 0 0 1-1.696.702 2.31 2.31 0 0 1-1.695-.702 2.324 2.324 0 0 1-.702-1.707c0-.53.164-1.014.491-1.45h-1.473c-.343 0-.592-.148-.748-.444-.156-.297-.133-.585.07-.866l1.754-2.853-1.357-6.571-.56-2.62H7.818a.785.785 0 0 1-.573-.245A.798.798 0 0 1 7 8.83c0-.226.082-.42.246-.584A.785.785 0 0 1 7.819 8h3.624c.187 0 .359.062.515.187a.85.85 0 0 1 .304.468l.117.584 14.78.07c.25 0 .456.094.62.281a.74.74 0 0 1 .175.655l-1.614 9.027a.757.757 0 0 1-.269.468.79.79 0 0 1-.526.187l-11.623.023-.701 1.427h13.938zm-14.43-10.5l1.567 7.46 10.571-.024 1.333-7.39-13.47-.047zm2.784 14.125a.78.78 0 0 0 0-1.064.682.682 0 0 0-.515-.223.72.72 0 0 0-.526.223.72.72 0 0 0-.222.526.72.72 0 0 0 .222.526.72.72 0 0 0 .526.222.7.7 0 0 0 .515-.21zm7.6 0a.78.78 0 0 0 0-1.064.682.682 0 0 0-.514-.223.72.72 0 0 0-.527.223.72.72 0 0 0-.222.526.72.72 0 0 0 .222.526.72.72 0 0 0 .527.222.7.7 0 0 0 .514-.21z"/></g></svg>