<svg xmlns="http://www.w3.org/2000/svg" xmlns:xlink="http://www.w3.org/1999/xlink" width="50" height="30" viewBox="0 0 50 30">
    <defs>
        <rect id="a" width="50" height="30" rx="4"/>
        <path id="b" d="M12.058 30h33.935A4 4 0 0 0 50 26V16.85S36.6 25.934 12.058 30z"/>
    </defs>
    <g fill="none" fill-rule="evenodd">
        <g>
            <use fill="#FFF" xlink:href="#a"/>
            <rect width="49" height="29" x=".5" y=".5" stroke="#E6772F" rx="4"/>
            <use fill="#E6772F" xlink:href="#b"/>
        </g>
        <path fill="#1A1919" d="M9.144 14.911c-.375.321-.853.461-1.617.461H7.21v-3.83h.317c.764 0 1.224.131 1.617.468.407.348.65.885.65 1.44 0 .56-.243 1.115-.65 1.461zm-1.38-4.35H6.029v5.793h1.724c.918 0 1.58-.21 2.16-.67a2.86 2.86 0 0 0 1.1-2.225c0-1.71-1.336-2.898-3.25-2.898zM11.557 10.561h1.176v5.793h-1.176zM15.622 12.781c-.71-.249-.917-.415-.917-.728 0-.364.37-.64.88-.64.354 0 .645.136.955.466l.615-.77a2.705 2.705 0 0 0-1.777-.644c-1.072 0-1.888.713-1.888 1.656 0 .8.38 1.207 1.487 1.593.463.154.699.259.818.33.236.146.353.355.353.597 0 .471-.39.818-.917.818-.562 0-1.016-.27-1.288-.774l-.761.705c.544.763 1.196 1.104 2.095 1.104 1.225 0 2.089-.785 2.089-1.904 0-.921-.4-1.339-1.744-1.809M17.737 13.459c0 1.703 1.397 3.023 3.196 3.023.507 0 .942-.095 1.477-.337v-1.331c-.473.455-.888.634-1.426.634-1.188 0-2.03-.823-2.03-1.997 0-1.11.869-1.989 1.979-1.989.56 0 .987.19 1.477.652v-1.33c-.517-.25-.942-.354-1.453-.354-1.789 0-3.22 1.346-3.22 3.029M31.974 14.45l-1.614-3.889h-1.287l2.566 5.939h.633l2.616-5.939h-1.277l-1.637 3.89M35.424 16.354h3.347v-.982h-2.166V13.81h2.084v-.982h-2.084v-1.285h2.166v-.98h-3.347v5.792M41.077 13.225h-.343v-1.752h.362c.738 0 1.133.296 1.133.86 0 .58-.395.892-1.152.892zm2.368-.955c0-1.084-.778-1.709-2.14-1.709H39.55v5.793h1.183v-2.33h.154l1.63 2.33h1.453l-1.904-2.442c.89-.174 1.378-.755 1.378-1.642z"/>
        <path fill="#E6772F" d="M29.24 13.472c0 1.668-1.413 3.02-3.156 3.02s-3.156-1.352-3.156-3.02c0-1.667 1.413-3.02 3.156-3.02s3.155 1.353 3.155 3.02"/>
    </g>
</svg>
