<svg xmlns="http://www.w3.org/2000/svg" width="42" height="42" viewBox="0 0 42 42">
    <g fill="none" fill-rule="evenodd">
        <path fill="none" d="M-7-7h56v56H-7z"/>
        <g fill="#0E0E12" fill-rule="nonzero">
            <path d="M3.083 3.448c-.387.31-.7.639-.944.964a2.912 2.912 0 0 0-.245.369 1 1 0 1 1-1.788-.895c.268-.537.822-1.276 1.728-2C3.31.705 5.248 0 7.667 0a1 1 0 0 1 .924.618l13.924 33.688 18.175-5.923a1 1 0 0 1 .62 1.901l-19.056 6.21a1 1 0 0 1-1.234-.568L7.007 2.022c-1.638.109-2.926.628-3.924 1.426z"/>
            <path d="M16.333 40.667a4.333 4.333 0 1 1 0-8.667 4.333 4.333 0 0 1 0 8.667zm0-2a2.333 2.333 0 1 0 0-4.667 2.333 2.333 0 0 0 0 4.667z"/>
            <path d="M1 42a1 1 0 0 1 0-2h40a1 1 0 0 1 0 2H1z"/>
        </g>
    </g>
</svg>
