<svg xmlns="http://www.w3.org/2000/svg" xmlns:xlink="http://www.w3.org/1999/xlink" width="84" height="84"><defs><circle id="b" cx="39" cy="39" r="39"/><filter id="a" width="111.5%" height="111.5%" x="-5.8%" y="-5.8%" filterUnits="objectBoundingBox"><feOffset in="SourceAlpha" result="shadowOffsetOuter1"/><feGaussianBlur in="shadowOffsetOuter1" result="shadowBlurOuter1" stdDeviation="1.5"/><feColorMatrix in="shadowBlurOuter1" values="0 0 0 0 0 0 0 0 0 0 0 0 0 0 0 0 0 0 0.28 0"/></filter><circle id="d" cx="39" cy="39" r="32.5"/><filter id="c" width="109.2%" height="109.2%" x="-4.6%" y="-4.6%" filterUnits="objectBoundingBox"><feOffset in="SourceAlpha" result="shadowOffsetOuter1"/><feGaussianBlur in="shadowOffsetOuter1" result="shadowBlurOuter1" stdDeviation="1"/><feColorMatrix in="shadowBlurOuter1" values="0 0 0 0 0 0 0 0 0 0 0 0 0 0 0 0 0 0 0.17 0"/></filter></defs><g fill="none" fill-rule="evenodd"><g transform="translate(3 3)"><use fill="#000" filter="url(#a)" xlink:href="#b"/><use fill="#FFF" xlink:href="#b"/></g><g transform="translate(3 3)"><use fill="#000" filter="url(#c)" xlink:href="#d"/><use fill="#FFF" xlink:href="#d"/></g><g fill="#000" fill-rule="nonzero"><path d="M42 22c-11.028 0-20 8.972-20 20s8.972 20 20 20 20-8.972 20-20-8.972-20-20-20zm0 38.62c-10.268 0-18.62-8.352-18.62-18.62S31.731 23.38 42 23.38 60.62 31.731 60.62 42 52.269 60.62 42 60.62z"/><path d="M41.5 55c-.276 0-.5.336-.5.75v1.5c0 .414.224.75.5.75s.5-.336.5-.75v-1.5c0-.414-.224-.75-.5-.75zm5.061.566a.796.796 0 0 0-.972-.54.76.76 0 0 0-.562.935l.412 1.473a.788.788 0 0 0 .766.566.804.804 0 0 0 .206-.027.76.76 0 0 0 .562-.934l-.412-1.473zm-10.895-2.459c-.318-.22-.726-.09-.91.295l-.667 1.392c-.184.384-.074.876.244 1.098.105.073.22.108.333.108.23 0 .454-.144.578-.402l.666-1.392c.185-.384.076-.876-.244-1.099zm13.578.295c-.185-.385-.593-.516-.91-.294-.32.222-.429.714-.244 1.098l.666 1.392c.124.258.347.402.578.402a.577.577 0 0 0 .332-.108c.32-.222.429-.713.244-1.098l-.666-1.392zm-10.833 1.624c-.423-.11-.859.132-.972.54l-.412 1.473a.76.76 0 0 0 .562.934.815.815 0 0 0 .206.027.79.79 0 0 0 .766-.566l.412-1.473a.76.76 0 0 0-.562-.935zm9.388-8.196l-5.33-5.33 5.33-5.33a.685.685 0 1 0-.969-.969l-5.33 5.33-5.33-5.33a.685.685 0 1 0-.969.969l5.33 5.33-5.33 5.33a.685.685 0 1 0 .969.97l5.33-5.33 5.33 5.33a.683.683 0 0 0 .969 0 .685.685 0 0 0 0-.97zm-.335-18.523c.51.18 1.015.39 1.5.62.104.05.213.073.32.073a.726.726 0 0 0 .64-.37.658.658 0 0 0-.316-.907 16.804 16.804 0 0 0-1.644-.68c-.37-.13-.78.047-.918.396-.14.35.049.737.418.868z"/><path d="M31.626 31.563c3.282-3.24 7.983-4.743 12.573-4.018a.69.69 0 0 0 .792-.566.684.684 0 0 0-.573-.782c-5.024-.796-10.174.85-13.769 4.4a15.579 15.579 0 0 0 0 22.203.694.694 0 0 0 .978 0 .676.676 0 0 0 0-.965 14.223 14.223 0 0 1-.001-20.272zm21.864-1.14a15.67 15.67 0 0 0-1.405-1.276.66.66 0 0 0-.942.116.7.7 0 0 0 .114.966c.448.36.88.753 1.284 1.167 5.492 5.633 5.492 14.797 0 20.43a.7.7 0 0 0 0 .972.66.66 0 0 0 .948 0c6.015-6.168 6.015-16.206 0-22.375z"/></g></g></svg>