<svg xmlns="http://www.w3.org/2000/svg" xmlns:xlink="http://www.w3.org/1999/xlink" width="84" height="84"><defs><circle id="b" cx="39" cy="39" r="39"/><filter id="a" width="111.5%" height="111.5%" x="-5.8%" y="-5.8%" filterUnits="objectBoundingBox"><feOffset in="SourceAlpha" result="shadowOffsetOuter1"/><feGaussianBlur in="shadowOffsetOuter1" result="shadowBlurOuter1" stdDeviation="1.5"/><feColorMatrix in="shadowBlurOuter1" values="0 0 0 0 0 0 0 0 0 0 0 0 0 0 0 0 0 0 0.28 0"/></filter><circle id="d" cx="39" cy="39" r="32.5"/><filter id="c" width="109.2%" height="109.2%" x="-4.6%" y="-4.6%" filterUnits="objectBoundingBox"><feOffset in="SourceAlpha" result="shadowOffsetOuter1"/><feGaussianBlur in="shadowOffsetOuter1" result="shadowBlurOuter1" stdDeviation="1"/><feColorMatrix in="shadowBlurOuter1" values="0 0 0 0 0 0 0 0 0 0 0 0 0 0 0 0 0 0 0.17 0"/></filter></defs><g fill="none" fill-rule="evenodd"><g transform="translate(3 3)"><use fill="#000" filter="url(#a)" xlink:href="#b"/><use fill="#FFF" xlink:href="#b"/></g><g transform="translate(3 3)"><use fill="#000" filter="url(#c)" xlink:href="#d"/><use fill="#FFF" xlink:href="#d"/></g><g fill="#000" fill-rule="nonzero"><path d="M60.286 28.571H47.214c.715-.285 1.357-.642 1.786-1.071 1.643-1.643 1.643-4.429 0-6.071-1.643-1.643-4.286-1.929-6.071 0-.715.785-1.215 2.5-1.5 4.142-.215-.928-.572-1.785-1-2.285-1.358-1.5-3.715-1.429-5.143 0a3.621 3.621 0 0 0 0 5.143c.071.071.143.142.214.142H23.143c-1.214 0-2.143.929-2.143 2.143V35c0 .571.214 1.143.643 1.5.214.214.5.429.786.5v20.857c0 1.214.928 2.143 2.142 2.143h34.286C60.071 60 61 59.071 61 57.857V37c.286-.071.571-.286.786-.5.428-.429.643-.929.643-1.5v-4.286c0-1.214-.929-2.143-2.143-2.143zM44 22.286a2.86 2.86 0 0 1 2.071-.857c.786 0 1.5.285 2.072.857a2.932 2.932 0 0 1 0 4.143c-.786.785-3.643 1.571-5.714 1.928.214-2.214.714-5.286 1.571-6.071zm-7.786 1.928a2.22 2.22 0 0 1 1.572-.643c.571 0 1.143.215 1.571.643.5.5.929 2.572 1.143 4.357h-1.286c-1.285-.285-2.571-.714-3-1.214a2.242 2.242 0 0 1 0-3.143zm-13.071 11.5a.648.648 0 0 1-.5-.214.648.648 0 0 1-.214-.5v-4.286c0-.428.285-.714.714-.714H41v5.714H23.143zM61 35a.648.648 0 0 1-.214.5.648.648 0 0 1-.5.214h-10c-.429 0-.715.286-.715.715 0 .428.286.714.715.714h9.285v20.714c0 .429-.285.714-.714.714H24.571c-.428 0-.714-.285-.714-.714V37.143H41V52.07c0 .429.286.786.714.786.429 0 .715-.286.715-.786V30h17.857c.428 0 .714.286.714.714V35z"/><path d="M31 54.286c-.429 0-.714.285-.714.714v1.429c0 .428.285.714.714.714s.714-.286.714-.714V55c0-.429-.285-.714-.714-.714zm-3.571 0c-.429 0-.715.285-.715.714v1.429c0 .428.286.714.715.714.428 0 .714-.286.714-.714V55c0-.429-.286-.714-.714-.714zm7.142 0c-.428 0-.714.285-.714.714v1.429c0 .428.286.714.714.714.429 0 .715-.286.715-.714V55c0-.429-.286-.714-.715-.714zm3.572 0c-.429 0-.714.285-.714.714v1.429c0 .428.285.714.714.714.428 0 .714-.286.714-.714V55c0-.429-.286-.714-.714-.714zm3.571 0c-.428 0-.714.285-.714.714v1.429c0 .428.286.714.714.714.429 0 .715-.286.715-.714V55c0-.429-.286-.714-.715-.714zm3.572 0c-.429 0-.715.285-.715.714v1.429c0 .428.286.714.715.714.428 0 .714-.286.714-.714V55c0-.429-.286-.714-.714-.714zm3.571 0c-.428 0-.714.285-.714.714v1.429c0 .428.286.714.714.714.429 0 .714-.286.714-.714V55c0-.429-.285-.714-.714-.714zm3.572 2.857c.428 0 .714-.286.714-.714V55c0-.429-.286-.714-.714-.714-.429 0-.715.285-.715.714v1.429c0 .428.286.714.715.714zm3.571 0c.429 0 .714-.286.714-.714V55c0-.429-.285-.714-.714-.714s-.714.285-.714.714v1.429c0 .428.285.714.714.714zm-8.571-21.429H44.57c-.428 0-.714.286-.714.715 0 .428.286.714.714.714h2.858c.428 0 .714-.286.714-.714 0-.429-.286-.715-.714-.715z"/></g></g></svg>