<svg xmlns="http://www.w3.org/2000/svg" xmlns:xlink="http://www.w3.org/1999/xlink" width="84" height="84"><defs><circle id="b" cx="39" cy="39" r="39"/><filter id="a" width="111.5%" height="111.5%" x="-5.8%" y="-5.8%" filterUnits="objectBoundingBox"><feOffset in="SourceAlpha" result="shadowOffsetOuter1"/><feGaussianBlur in="shadowOffsetOuter1" result="shadowBlurOuter1" stdDeviation="1.5"/><feColorMatrix in="shadowBlurOuter1" values="0 0 0 0 0 0 0 0 0 0 0 0 0 0 0 0 0 0 0.28 0"/></filter><circle id="d" cx="39" cy="39" r="32.5"/><filter id="c" width="109.2%" height="109.2%" x="-4.6%" y="-4.6%" filterUnits="objectBoundingBox"><feOffset in="SourceAlpha" result="shadowOffsetOuter1"/><feGaussianBlur in="shadowOffsetOuter1" result="shadowBlurOuter1" stdDeviation="1"/><feColorMatrix in="shadowBlurOuter1" values="0 0 0 0 0 0 0 0 0 0 0 0 0 0 0 0 0 0 0.17 0"/></filter></defs><g fill="none" fill-rule="evenodd"><g transform="translate(3 3)"><use fill="#000" filter="url(#a)" xlink:href="#b"/><use fill="#FFF" xlink:href="#b"/></g><g transform="translate(3 3)"><use fill="#000" filter="url(#c)" xlink:href="#d"/><use fill="#FFF" xlink:href="#d"/></g><g fill="#000" fill-rule="nonzero" transform="translate(22 22)"><circle cx="15" cy="32.5" r="1"/><circle cx="17.5" cy="32.5" r="1"/><circle cx="20" cy="32.5" r="1"/><circle cx="22.5" cy="32.5" r="1"/><circle cx="25" cy="32.5" r="1"/><circle cx="7.5" cy="32.5" r="1"/><circle cx="10" cy="32.5" r="1"/><circle cx="12.5" cy="32.5" r="1"/><circle cx="20" cy="27.5" r="1"/><circle cx="20" cy="25" r="1"/><circle cx="20" cy="22.5" r="1"/><circle cx="20" cy="20" r="1"/><circle cx="20" cy="30" r="1"/><circle cx="20" cy="32.5" r="1"/><circle cx="20" cy="35" r="1"/><circle cx="20" cy="37.5" r="1"/><circle cx="35" cy="20" r="1"/><circle cx="30" cy="20" r="1"/><circle cx="32.5" cy="20" r="1"/><circle cx="35" cy="20" r="1"/><circle cx="37.5" cy="20" r="1"/><circle cx="7.5" cy="20" r="1"/><circle cx="12.5" cy="20" r="1"/><circle cx="15" cy="20" r="1"/><circle cx="17.5" cy="20" r="1"/><circle cx="22.5" cy="20" r="1"/><circle cx="25" cy="20" r="1"/><circle cx="27.5" cy="20" r="1"/><circle cx="10" cy="20" r="1"/><circle cx="7.5" cy="20" r="1"/><circle cx="5" cy="20" r="1"/><circle cx="2.5" cy="20" r="1"/><circle cx="13.75" cy="35" r="1"/><circle cx="15.625" cy="36.875" r="1"/><circle cx="31.875" cy="22.5" r="1"/><circle cx="10" cy="27.5" r="1"/><circle cx="8.75" cy="25" r="1"/><circle cx="8.125" cy="22.5" r="1"/><circle cx="11.25" cy="30" r="1"/><circle cx="26.25" cy="35" r="1"/><circle cx="24.375" cy="36.875" r="1"/><circle cx="25" cy="7.5" r="1"/><circle cx="22.5" cy="7.5" r="1"/><circle cx="20" cy="7.5" r="1"/><circle cx="17.5" cy="7.5" r="1"/><circle cx="15" cy="7.5" r="1"/><circle cx="12.5" cy="7.5" r="1"/><circle cx="10" cy="7.5" r="1"/><circle cx="7.5" cy="7.5" r="1"/><circle cx="32.5" cy="7.5" r="1"/><circle cx="30" cy="7.5" r="1"/><circle cx="27.5" cy="7.5" r="1"/><circle cx="20" cy="12.5" r="1"/><circle cx="20" cy="15" r="1"/><circle cx="20" cy="17.5" r="1"/><circle cx="20" cy="10" r="1"/><circle cx="20" cy="7.5" r="1"/><circle cx="20" cy="5" r="1"/><circle cx="20" cy="2.5" r="1"/><circle cx="26.25" cy="5" r="1"/><circle cx="24.375" cy="3.125" r="1"/><circle cx="10" cy="12.5" r="1"/><circle cx="8.75" cy="15" r="1"/><circle cx="8.125" cy="17.5" r="1"/><circle cx="11.25" cy="10" r="1"/><circle cx="30" cy="12.5" r="1"/><circle cx="31.25" cy="15" r="1"/><circle cx="31.875" cy="17.5" r="1"/><circle cx="28.75" cy="10" r="1"/><circle cx="13.75" cy="5" r="1"/><circle cx="15.625" cy="3.125" r="1"/><path d="M33.704 34.519l4.301-.201-8.63-8.068v12.112l2.914-3.188 2.167 4.707 1.452-.624z"/><path d="M37.869 30.546a.75.75 0 0 1-1.291-.763A19.15 19.15 0 0 0 39.25 20C39.25 9.369 30.631.75 20 .75S.75 9.369.75 20 9.369 39.25 20 39.25c2.286 0 4.517-.398 6.617-1.167a.75.75 0 0 1 .516 1.408A20.704 20.704 0 0 1 20 40.75C8.54 40.75-.75 31.46-.75 20S8.54-.75 20-.75 40.75 8.54 40.75 20a20.65 20.65 0 0 1-2.881 10.546z"/></g></g></svg>