<svg xmlns="http://www.w3.org/2000/svg" width="44" height="44" viewBox="0 0 44 44">
    <g fill="none" fill-rule="evenodd">
        <circle cx="22" cy="22" r="22" fill="#FFF"/>
        <path id="medium" fill="#1F2126" d="M31.21 16.357c-.294 0-.71.429-.71.703v9.934c0 .274.416.648.71.648H32V30h-7.167v-2.358h1.5V17.199h-.073L22.757 30h-2.711l-3.459-12.8H16.5v10.442H18V30h-6v-2.358h.769c.316 0 .731-.374.731-.648V17.06c0-.274-.415-.703-.731-.703H12V14h7.502l2.464 9.263h.068L24.52 14H32v2.357h-.79z"/>
    </g>
</svg>
