<svg xmlns="http://www.w3.org/2000/svg" width="44" height="44" viewBox="0 0 44 44">
    <g fill="none" fill-rule="evenodd">
        <circle cx="22" cy="22" r="22" fill="#FFF"/>
        <path id="g-plus" fill="#0E0E12" d="M18.225 32.863c-2.715 0-4.675-1.731-4.675-3.81 0-2.038 2.432-3.735 5.146-3.705.632.008 1.223.11 1.758.284 1.473 1.033 2.53 1.616 2.828 2.792.057.24.088.483.088.735 0 2.08-1.33 3.704-5.145 3.704m.713-12.193c-1.822-.055-3.553-2.052-3.867-4.462-.314-2.41.907-4.255 2.729-4.2 1.82.055 3.552 1.987 3.866 4.399.315 2.41-.907 4.319-2.728 4.263m3.775 3.57c-.639-.457-1.859-1.564-1.859-2.216 0-.765.217-1.14 1.356-2.038 1.17-.92 1.997-2.215 1.997-3.719 0-1.793-.792-3.539-2.279-4.115h2.242L25.752 11h-7.07c-3.168 0-6.152 2.42-6.152 5.221 0 2.864 2.161 5.176 5.385 5.176.226 0 .442-.005.655-.02-.208.402-.36.858-.36 1.329 0 .796.426 1.442.964 1.969-.407 0-.8.012-1.225.012-3.926 0-6.949 2.518-6.949 5.132C11 32.39 14.314 34 18.238 34c4.475 0 6.95-2.559 6.95-5.132 0-2.062-.606-3.298-2.475-4.629M33 20.88h-2.752v-2.771h-2.215v2.772H25.28v2.233h2.752v2.772h2.215v-2.772H33V20.88"/>
    </g>
</svg>
