<svg id="Layer_1" xmlns="http://www.w3.org/2000/svg" viewBox="0 0 21 21">
  <style>
    .st0{display:none}.st1{fill:#fff}.st1,.st2{display:inline}.st3{fill:#fff}
  </style>
  <g id="Bitcoin" class="st0">
    <path id="XMLID_6_" class="st1" d="M17 11c-.5-.6-1.2-1-2.1-1.3 1.2-.6 1.7-1.7 1.6-3.2 0-.5-.2-1-.4-1.4-.2-.4-.6-.7-1-1-.4-.2-.9-.4-1.4-.6-.5-.1-1-.2-1.7-.3V.3h-1.8v3H8.7v-3H6.9v3.1H3.2v2h1.3c.6 0 1 .3 1.1.8v3.5h.2-.2v4.9c-.1.4-.3.6-.7.6H3.6l-.4 2.2h3.7v3.1h1.8v-3.1h1.5v3.1H12v-3.1c.7 0 1.2-.1 1.7-.2s1-.2 1.5-.4.8-.4 1.2-.7c.3-.3.6-.6.8-1.1.2-.4.3-.9.4-1.5.1-1-.1-1.9-.6-2.5zM8.8 5.5h1.8c.3 0 .5.1.7.1s.4.1.7.2l.6.3c.1.1.3.3.4.5.1.2.1.4.1.7 0 .2 0 .4-.1.6-.1.2-.2.3-.3.5-.1.1-.3.2-.4.3-.2.1-.3.2-.6.2-.2.1-.4.1-.6.1-.2 0-.4.1-.7.1H8.8V5.5zm5 8.4c-.1.2-.2.4-.3.5-.1.1-.3.3-.5.4l-.6.3c-.2.1-.4.1-.7.2-.3 0-.5.1-.7.1H8.7v-4.1h2.2c.4 0 .6.1.9.1.2 0 .5.1.8.2.3.1.5.2.7.4.2.1.3.3.4.6.1.2.2.5.2.8 0 .1 0 .3-.1.5z"/>
  </g>
  <g id="Telegram" class="st0">
    <path id="XMLID_497_" class="st1" d="M1.6 10.2l4.2 1.6L7.4 17c.1.3.5.5.8.2l2.4-1.9c.2-.2.6-.2.9 0l4.2 3.1c.3.2.7.1.8-.3l3.1-15c.1-.4-.3-.7-.7-.6L1.6 9.2c-.5.2-.5.8 0 1zm5.6.7l8.2-5.1c.1-.1.3.1.2.2l-6.8 6.3c-.2.2-.4.5-.4.8l-.2 1.7c0 .2-.4.3-.4 0l-.9-3.1c-.2-.2-.1-.6.3-.8z"/>
  </g>
  <g id="Github" class="st0">
    <path id="XMLID_34_" class="st1" d="M18.5 6.1c-.8-1.4-2-2.6-3.4-3.4-1.4-.8-3-1.2-4.7-1.2-1.7 0-3.2.4-4.7 1.2-1.4.8-2.6 2-3.4 3.4-.8 1.4-1.2 3-1.2 4.7 0 2 .6 3.9 1.8 5.5 1.2 1.6 2.7 2.7 4.6 3.4.2 0 .4 0 .5-.1.1-.1.2-.2.2-.4v-1.8h-1c-.3 0-.6 0-.8-.1-.4 0-.7-.1-.9-.3-.3-.2-.4-.4-.5-.7l-.2-.3c-.1-.2-.2-.4-.4-.6-.2-.2-.3-.4-.5-.5l-.1-.1c-.1 0-.1-.1-.2-.1 0-.1-.1-.1-.1-.2s0-.1.1-.1.2-.1.4-.1h.2c.2 0 .4.1.6.3l.6.6c.2.3.4.6.7.8.3.2.5.3.8.3s.5 0 .7-.1c.2 0 .4-.1.5-.2.1-.5.3-1 .6-1.2-.5 0-.9-.1-1.2-.2-.4-.1-.7-.3-1.1-.5-.4-.2-.7-.5-1-.8-.3-.3-.5-.7-.6-1.3-.2-.5-.2-1.1-.2-1.8 0-1 .3-1.8 1-2.5-.5-.7-.4-1.5-.1-2.4.2-.1.6 0 1 .2.5.2.8.3 1 .5.3 0 .4.1.6.2.7-.2 1.5-.3 2.3-.3.8 0 1.6.1 2.3.3l.5-.3c.3-.2.7-.4 1.1-.5.4-.2.8-.2 1-.1.4.9.4 1.7.1 2.5.6.7 1 1.5 1 2.5 0 .7-.1 1.3-.2 1.8-.2.5-.4 1-.6 1.3-.3.3-.6.6-1 .8-.4.2-.8.4-1.1.5-.4.1-.8.2-1.2.2.4.4.6.9.6 1.7v2.6c0 .1.1.3.2.4.1.1.3.1.5.1 1.9-.6 3.4-1.7 4.6-3.4 1.2-1.6 1.8-3.4 1.8-5.5-.3-1.8-.7-3.3-1.5-4.7z"/>
  </g>
  <g id="Facebook" class="st0">
    <path id="XMLID_25_" class="st1" d="M15.2.9h-2.5C9.9.9 8.1 2.8 8.1 5.6v2.2H5.6c-.2 0-.4.2-.4.4v3.2c0 .2.2.4.4.4h2.5v8c0 .2.2.4.4.4h3.3c.2 0 .4-.2.4-.4v-8h2.9c.2 0 .4-.2.4-.4V8.2c0-.1 0-.2-.1-.3s-.2-.1-.3-.1h-2.9V6c0-.9.2-1.3 1.4-1.3h1.7c.2 0 .4-.2.4-.4v-3c-.1-.2-.3-.4-.5-.4z"/>
  </g>
  <g id="Linkedin" class="st0">
    <path id="LinkedIn__x28_alt_x29_" class="st1" d="M18.2 1.4H2.6c-.7 0-1.3.6-1.3 1.3v15.7c0 .7.6 1.3 1.4 1.3h15.6c.7 0 1.3-.6 1.3-1.3V2.7c-.1-.7-.7-1.3-1.4-1.3zM6.8 16.7H4V8.4h2.8v8.3zM5.4 7.3c-.9 0-1.5-.6-1.5-1.4 0-.8.6-1.4 1.6-1.4C6.4 4.4 7 5 7 5.9c0 .7-.6 1.4-1.6 1.4zm11.4 9.4H14v-4.4c0-1.1-.4-1.9-1.4-1.9-.8 0-1.2.5-1.4 1-.1.2-.1.4-.1.7v4.6H8.3V8.5h2.8v1.2c.4-.6 1-1.4 2.5-1.4 1.8 0 3.2 1.2 3.2 3.7v4.7zm-5.7-7.1z"/>
  </g>
  <g id="Youtube" class="st0">
    <g id="XMLID_20_" class="st2">
      <path id="XMLID_21_" class="st3" d="M19.1 5.2c-.5-.9-1.1-1.1-2.2-1.2-1.1-.1-4-.1-6.5-.1S5 4 3.9 4c-1.1.1-1.7.3-2.2 1.2-.5.9-.8 2.5-.8 5.3s.3 4.4.8 5.3c.5.9 1.1 1.1 2.2 1.2 1.1.1 4 .1 6.5.1s5.4 0 6.5-.1c1.1-.1 1.7-.2 2.2-1.2.5-.9.8-2.5.8-5.3s-.2-4.4-.8-5.3zM8 14.1V6.9l6 3.6-6 3.6z"/>
    </g>
  </g>
  <g id="Twitter" class="st0">
    <g id="XMLID_17_" class="st2">
      <path id="XMLID_18_" class="st3" d="M20.3 4.4c-.7.3-1.5.5-2.3.6.8-.5 1.5-1.3 1.8-2.2-.8.5-1.7.8-2.6 1-.7-.8-1.8-1.3-3-1.3-2.2 0-4.1 1.8-4.1 4.1 0 .3 0 .6.1.9-3.3-.2-6.3-1.8-8.3-4.3-.3.6-.5 1.3-.5 2 0 1.4.7 2.6 1.8 3.4-.7 0-1.3-.2-1.8-.5v.1c0 2 1.4 3.6 3.2 4-.3.1-.7.1-1.1.1-.3 0-.5 0-.8-.1.5 1.6 2 2.8 3.8 2.8-1.4 1.1-3.1 1.7-5 1.7-.3 0-.6 0-1-.1 1.8 1.2 3.9 1.8 6.2 1.8 7.5 0 11.5-6.2 11.5-11.5v-.5c.9-.5 1.5-1.2 2.1-2z"/>
    </g>
  </g>
  <g id="Medium" class="st0">
    <g id="XMLID_33_" class="st2">
      <path id="XMLID_14_" class="st3" d="M13.1 14.3l5-8.2-4.9-2.4h-.1c-.1 0-.1 0-.2.1l-3 5.1 3.2 5.4z"/>
      <path id="XMLID_13_" class="st3" d="M8.8 7.9l-.7-1.1v5.6l4.9 2.5z"/>
      <path id="XMLID_12_" class="st3" d="M13.2 14.9l4.7 2.4c.2.1.4 0 .4-.3V6.4l-5.1 8.5z"/>
      <path id="XMLID_11_" class="st3" d="M7.7 12.2v-6h-.1L5.3 5 2.7 3.7c-.2-.1-.3 0-.3.2v10.6c0 .2.1.4.3.5l4.6 2.3c.2.1.4 0 .4-.3v-4.8z"/>
    </g>
  </g>
  <g id="Steemit" class="st0">
    <path id="XMLID_10_" class="st1" d="M6.6 11.2c-.5-1-.9-2-1.4-3-.2-.4-.4-.8-.5-1.2-.2-.4-.3-.8-.3-1.3V4.6c0-.3.1-.5.1-.8 0-.1-.1-.2-.3-.1-.7.7-1.5 1.5-1.8 2.5-.4 1.1.1 2.2.6 3.2l1.5 3c.4.8.9 1.8.7 2.7-.1.7-.3 1.3-.4 1.9-.1.4.3 0 .5-.1.8-.7 1.8-1.5 2.1-2.7.2-.6.1-1.1-.1-1.6-.2-.4-.5-.9-.7-1.4z"/>
    <path id="XMLID_9_" class="st1" d="M18.3 12.7l-.6-1.5c-.5-1-.9-2-1.4-3-.2-.4-.4-.7-.6-1.1-.2-.4-.3-.8-.3-1.3V4.7c0-.3.1-.5.1-.8 0-.1-.1-.2-.3-.1-.7.6-1.5 1.4-1.8 2.3-.4 1.1.1 2.2.6 3.2l1.5 3c.4.8.9 1.8.7 2.7-.1.7-.3 1.3-.4 1.9-.1.4.3 0 .5-.1.8-.7 1.8-1.5 2.1-2.7.2-.4.1-.9-.1-1.4z"/>
    <path id="XMLID_8_" class="st1" d="M13.2 12.6c-.3-.7-.6-1.3-.8-1.9-.5-1.2-1.1-2.3-1.7-3.5L10.1 6c-.3-.6-.4-1.2-.4-1.7V3c0-.3.1-.6.1-.8.2-.4 0-.4-.2-.2-.8.7-1.8 1.5-2.3 2.5-.3.7-.4 1.4-.2 2.2.2.9.6 1.7.9 2.6.7 1.6 1.6 3.1 2.3 4.8.2.6.5 1.2.6 1.9 0 .8-.2 1.6-.4 2.4 0 .2-.2.5-.2.7 0 .2.1.1.2 0 .4-.3.8-.7 1.2-1 1-.9 2.1-2.2 2-3.7 0-.7-.3-1.2-.5-1.8z"/>
  </g>
  <g id="XMLID_47_" class="st0">
    <g id="XMLID_48_" class="st2">
      <path id="XMLID_32_" class="st3" d="M-18.9 11.7h.6z"/>
    </g>
  </g>
  <g id="XMLID_44_" class="st0">
    <g id="XMLID_45_" class="st2">
      <path id="XMLID_26_" class="st3" d="M-12.7 11.7h.6z"/>
    </g>
  </g>
  <g id="XMLID_36_">
    <g id="XMLID_37_">
      <path id="XMLID_38_" class="st3" d="M20.1 10.1c0-1.3-1.1-2.4-2.4-2.4-.5 0-1 .2-1.4.5-1.3-.9-3.1-1.5-4.9-1.6l1-2.3 2.9.7c.1.9.8 1.6 1.8 1.6s1.8-.8 1.8-1.8S18 3 17 3c-.6 0-1.2.3-1.5.8L12.1 3c-.3-.1-.6.1-.7.3L10 6.5c-2 .1-3.9.7-5.3 1.7-.4-.3-.9-.5-1.4-.5C2 7.7.9 8.8.9 10.1c0 .9.5 1.7 1.2 2.1v.3c0 3.3 3.7 6 8.3 6 4.6 0 8.3-2.7 8.3-6v-.3c.9-.4 1.4-1.2 1.4-2.1zm-3.1-6c.3 0 .6.3.6.6s-.3.6-.6.6-.6-.3-.6-.6.3-.6.6-.6zM6.3 11.9c0-.7.5-1.2 1.2-1.2s1.2.5 1.2 1.2-.5 1.2-1.2 1.2-1.2-.5-1.2-1.2zm6.9 4c-.8.6-1.8.9-2.8.9s-1.9-.3-2.8-.9c-.3-.2-.3-.6-.1-.8.2-.3.6-.3.8-.1 1.2.9 2.9.9 4.1 0 .3-.2.6-.1.8.1.3.2.3.6 0 .8zm.2-2.8c-.7 0-1.2-.5-1.2-1.2s.5-1.2 1.2-1.2 1.2.5 1.2 1.2-.5 1.2-1.2 1.2z"/>
    </g>
  </g>
</svg>
