<svg xmlns="http://www.w3.org/2000/svg" width="66" height="66" viewBox="0 0 66 66">
    <g fill="#FF6161" fill-rule="evenodd">
        <circle cx="33" cy="33" r="33" fill-opacity=".1"/>
        <path fill-rule="nonzero" d="M33 66C14.775 66 0 51.225 0 33S14.775 0 33 0s33 14.775 33 33-14.775 33-33 33zm0-2c17.12 0 31-13.88 31-31C64 15.88 50.12 2 33 2 15.88 2 2 15.88 2 33c0 17.12 13.88 31 31 31z"/>
        <path fill-rule="nonzero" d="M15.23 49.363a1 1 0 0 0 1.54 1.274C20.988 45.534 26.37 43 33 43c6.63 0 12.013 2.534 16.23 7.637a1 1 0 0 0 1.54-1.274C46.176 43.8 40.226 41 33 41s-13.175 2.8-17.77 8.363z"/>
    </g>
</svg>
