<svg xmlns="http://www.w3.org/2000/svg" width="66" height="66" viewBox="0 0 66 66">
    <g fill="#00C759" fill-rule="evenodd">
        <circle cx="33" cy="33" r="33" fill-opacity=".05"/>
        <path fill-rule="nonzero" d="M33 66C14.775 66 0 51.225 0 33S14.775 0 33 0s33 14.775 33 33-14.775 33-33 33zm0-2c17.12 0 31-13.88 31-31C64 15.88 50.12 2 33 2 15.88 2 2 15.88 2 33c0 17.12 13.88 31 31 31z"/>
        <path fill-rule="nonzero" d="M15.23 42.637a1 1 0 1 1 1.541-1.274C20.987 46.466 26.371 49 33 49c6.63 0 12.013-2.534 16.229-7.637a1 1 0 0 1 1.542 1.274C46.175 48.2 40.225 51 33 51c-7.225 0-13.175-2.8-17.77-8.363z"/>
    </g>
</svg>
