<svg xmlns="http://www.w3.org/2000/svg" width="25" height="25" viewBox="0 0 25 25">
    <g fill="none" fill-rule="evenodd">
        <circle cx="12.5" cy="12.5" r="12.5" fill="#6B4DE1"/>
        <path fill="#FFF" d="M10.117 18a.167.167 0 0 1-.078-.016.576.576 0 0 1-.47-.328l-2.486-4.558a.72.72 0 0 1-.062-.508.594.594 0 0 1 .29-.393.585.585 0 0 1 .476-.058c.167.05.297.15.391.304l2.08 3.82 7.679-8.066A.556.556 0 0 1 18.374 8c.178 0 .326.063.446.189a.65.65 0 0 1 .18.467.61.61 0 0 1-.188.459l-8.226 8.655-.03.033a.556.556 0 0 1-.439.197z"/>
    </g>
</svg>
