<svg xmlns="http://www.w3.org/2000/svg" width="119" height="26"><path fill="#424770" fill-rule="evenodd" d="M113 26H6a6 6 0 0 1-6-6V6a6 6 0 0 1 6-6h107a6 6 0 0 1 6 6v14a6 6 0 0 1-6 6zm5-20a5 5 0 0 0-5-5H6a5 5 0 0 0-5 5v14a5 5 0 0 0 5 5h107a5 5 0 0 0 5-5V6z" opacity=".35"/><path fill="#424770" fill-rule="evenodd" d="M60.7 18.44h-1.3l1-2.5-2-5.07h1.37l1.27 3.45 1.27-3.45h1.38l-2.99 7.57zm-5.01-2.18c-.45 0-.92-.17-1.34-.5v.37h-1.34V8.57h1.34v2.66c.42-.32.89-.49 1.34-.49 1.41 0 2.38 1.14 2.38 2.76 0 1.62-.97 2.76-2.38 2.76zm-.28-4.36c-.37 0-.74.16-1.06.48v2.25c.32.31.69.47 1.06.47.75 0 1.28-.65 1.28-1.6 0-.95-.53-1.6-1.28-1.6zm-7.86 3.86c-.4.33-.87.5-1.33.5-1.4 0-2.38-1.14-2.38-2.76 0-1.62.98-2.76 2.38-2.76.46 0 .92.17 1.33.49V8.57h1.36v7.56h-1.36v-.37zm0-3.38c-.3-.32-.67-.48-1.04-.48-.77 0-1.3.65-1.3 1.6 0 .95.53 1.6 1.3 1.6.37 0 .74-.16 1.04-.47v-2.25zm-8.02 1.49c.09.8.72 1.35 1.6 1.35a3.2 3.2 0 0 0 1.57-.5v1.13c-.6.27-1.2.4-1.79.4-1.59 0-2.7-1.15-2.7-2.79 0-1.59 1.1-2.72 2.6-2.72 1.38 0 2.31 1.09 2.31 2.63 0 .15 0 .32-.02.5h-3.57zm1.23-2.08c-.66 0-1.16.48-1.23 1.2h2.3c-.04-.7-.47-1.2-1.07-1.2zm-4.77.83v3.51h-1.35v-5.26H36v.53a1.8 1.8 0 0 1 1.3-.66c.14 0 .29.02.43.06V12a1.77 1.77 0 0 0-.47-.07c-.44 0-.91.25-1.26.69zm-6.01 1.25c.08.8.71 1.35 1.6 1.35.48 0 1.02-.18 1.57-.5v1.13c-.6.27-1.2.4-1.8.4-1.58 0-2.7-1.15-2.7-2.79 0-1.59 1.1-2.72 2.6-2.72 1.38 0 2.32 1.09 2.32 2.63 0 .15 0 .32-.02.5h-3.57zm1.22-2.08c-.65 0-1.16.48-1.22 1.2h2.3c-.05-.7-.48-1.2-1.08-1.2zm-5.93 4.34l-1.07-3.57-1.06 3.57h-1.21l-1.81-5.26h1.34l1.07 3.58 1.06-3.58h1.22l1.06 3.58 1.07-3.58h1.34l-1.8 5.26h-1.2zm-8.23.13a2.63 2.63 0 0 1-2.71-2.76c0-1.62 1.12-2.76 2.71-2.76 1.6 0 2.7 1.14 2.7 2.76 0 1.61-1.1 2.76-2.7 2.76zm0-4.39c-.79 0-1.33.66-1.33 1.63 0 .97.54 1.63 1.33 1.63.78 0 1.33-.66 1.33-1.63 0-.97-.55-1.63-1.33-1.63zm-5.91 1.66H9.92v2.6H8.57V8.9h2.56c1.47 0 2.52.96 2.52 2.33s-1.05 2.31-2.52 2.31zm-.2-3.54h-1v2.45h1.02c.78 0 1.33-.5 1.33-1.22 0-.74-.55-1.23-1.33-1.23zm100.19 4.06h-5.56c.12 1.33 1.1 1.72 2.2 1.72a6 6 0 0 0 2.8-.62v2.28a6.4 6.4 0 0 1-3.15.74c-2.77 0-4.7-1.73-4.7-5.16 0-2.89 1.64-5.18 4.34-5.18s4.1 2.29 4.1 5.2l-.03 1.02zm-4.09-3.91c-.7 0-1.5.54-1.5 1.81h2.94c0-1.27-.74-1.81-1.44-1.81zm-8.92 8.03c-1 0-1.6-.42-2.01-.72v3.21l-2.85.6V8.02h2.5l.15.7c.4-.36 1.11-.89 2.22-.89 2 0 3.88 1.8 3.88 5.1 0 3.62-1.86 5.25-3.9 5.25zm-.66-7.83c-.66 0-1.06.24-1.36.56l.02 4.22c.27.3.67.54 1.34.54 1.05 0 1.75-1.14 1.75-2.67 0-1.49-.72-2.65-1.75-2.65zm-8.3-2.33H92v9.96h-2.85V8zm0-3.17L92 4.23v2.31l-2.85.6v-2.3zm-3.04 6.38v6.75h-2.84V8h2.46l.17.84c.67-1.22 2-.97 2.38-.83v2.6c-.37-.11-1.5-.28-2.17.6zm-6.09 3.25c0 1.68 1.8 1.16 2.16 1.01v2.31c-.38.21-1.07.38-2 .38a2.86 2.86 0 0 1-2.94-2.92l.01-9.11 2.77-.6v2.47h2.16v2.43h-2.16v4.04zm-3.53.49c0 2.04-1.63 3.2-4 3.2a7.8 7.8 0 0 1-3.1-.64v-2.7c.95.51 2.17.9 3.11.9.63 0 1.09-.17 1.09-.7 0-1.35-4.32-.84-4.32-3.98 0-2.01 1.54-3.21 3.84-3.21.94 0 1.88.14 2.82.51v2.68a6.36 6.36 0 0 0-2.82-.73c-.6 0-.97.17-.97.61 0 1.28 4.34.67 4.34 4.06z" opacity=".5"/></svg>