<svg width="22" height="22" xmlns="http://www.w3.org/2000/svg">
  <g fill="none" fill-rule="evenodd">
    <path d="M0 0h21v21H0z"/>
    <path d="M4.23 19.206a.08.08 0 0 0 .016.001.06.06 0 0 1-.013-.002H4.23zm-.14-.077zM19.54 5.203a.642.642 0 0 1-.216.479.71.71 0 0 1-.508.205h-.39v12.168c0 .377-.137.7-.41.966a1.35 1.35 0 0 1-.977.4H4.695a1.35 1.35 0 0 1-.976-.4 1.302 1.302 0 0 1-.41-.966V5.887h-.606a.678.678 0 0 1-.498-.205A.667.667 0 0 1 2 5.193c0-.188.068-.351.205-.488a.678.678 0 0 1 .498-.205h3.613V3.367c0-.377.134-.7.4-.967.268-.267.596-.4.987-.4h6.133c.378 0 .703.133.976.4.274.267.41.59.41.967V4.5h3.594a.702.702 0 0 1 .723.703zM7.683 3.387V4.5h6.152V3.387H7.684zm9.355 14.668V5.887H4.695v12.168H17.04zm-5.8-9.61c.143.13.214.293.214.489v6.523a.678.678 0 0 1-.205.498.667.667 0 0 1-.488.205.667.667 0 0 1-.489-.205.678.678 0 0 1-.205-.498V8.934c0-.196.069-.362.205-.498a.667.667 0 0 1 .489-.206c.189 0 .348.072.478.215zm-3.79 0c.143.13.215.293.215.489v6.523a.678.678 0 0 1-.205.498.678.678 0 0 1-.498.205.678.678 0 0 1-.498-.205.678.678 0 0 1-.205-.498V8.934c0-.196.068-.362.205-.498a.678.678 0 0 1 .498-.206c.195 0 .358.072.488.215zm7.559 0c.143.13.215.293.215.489v6.523a.678.678 0 0 1-.205.498.678.678 0 0 1-.498.205.678.678 0 0 1-.499-.205.678.678 0 0 1-.205-.498V8.934c0-.196.069-.362.205-.498a.678.678 0 0 1 .499-.206c.195 0 .358.072.488.215z" fill-opacity=".4" fill="#454A50"/>
  </g>
</svg>
