<svg xmlns="http://www.w3.org/2000/svg" width="35" height="35"><g fill="none" fill-rule="evenodd"><path fill="#FFF" d="M25.25 24.48a8.79 8.79 0 0 1 .69 3.3c0 .26-.1.48-.27.65a.88.88 0 0 1-.65.27.88.88 0 0 1-.65-.27.88.88 0 0 1-.26-.64c0-1.85-.65-3.42-1.94-4.71s-2.86-1.95-4.7-1.95c-1.84 0-3.4.65-4.7 1.96a6.43 6.43 0 0 0-1.94 4.7c0 .25-.1.47-.27.64a.88.88 0 0 1-.65.27.88.88 0 0 1-.64-.27.88.88 0 0 1-.27-.64c0-1.15.22-2.26.66-3.3a8.27 8.27 0 0 1 1.8-2.7 8.27 8.27 0 0 1 2.7-1.8c.32-.15.67-.28 1.06-.38a6.78 6.78 0 0 1-2.72-1.68 6.8 6.8 0 0 1-2.03-4.95c0-1.93.68-3.57 2.05-4.94A6.72 6.72 0 0 1 17.45 6c1.93 0 3.58.68 4.96 2.04a6.7 6.7 0 0 1 2.05 4.94c0 1.93-.68 3.58-2.05 4.95a6.78 6.78 0 0 1-2.72 1.68 7.23 7.23 0 0 1 1.07.38 8.27 8.27 0 0 1 2.69 1.8 8.27 8.27 0 0 1 1.8 2.7zM13.8 16.64a4.99 4.99 0 0 0 3.65 1.52c1.43 0 2.64-.5 3.65-1.52a5 5 0 0 0 1.5-3.66c0-1.42-.5-2.63-1.5-3.64-1-1-2.22-1.51-3.65-1.51-1.42 0-2.63.5-3.64 1.51-1 1-1.5 2.22-1.5 3.64 0 1.43.5 2.64 1.49 3.66z"/><path d="M0 0h35v35H0z"/></g></svg>