<svg xmlns="http://www.w3.org/2000/svg" width="19" height="25"><g fill="none" fill-rule="evenodd"><path fill="#fff" d="M17.64 20.07c.48 1.14.73 2.33.75 3.58 0 .28-.1.51-.3.7-.19.2-.42.3-.7.3a.96.96 0 0 1-.7-.3.96.96 0 0 1-.29-.7c0-2-.7-3.7-2.1-5.11s-3.11-2.11-5.1-2.11-3.7.7-5.1 2.12a6.98 6.98 0 0 0-2.12 5.1c0 .28-.1.51-.28.7-.2.2-.43.3-.7.3a.96.96 0 0 1-.71-.3.96.96 0 0 1-.29-.7 9.17 9.17 0 0 1 6.75-8.87 7.36 7.36 0 0 1-2.95-1.82 7.37 7.37 0 0 1-2.2-5.38c0-2.1.74-3.88 2.22-5.36S7.08 0 9.18 0c2.1 0 3.89.74 5.38 2.22a7.28 7.28 0 0 1 2.23 5.36c0 2.1-.75 3.89-2.23 5.38a7.36 7.36 0 0 1-2.95 1.82 8.98 8.98 0 0 1 6.04 5.3zM5.21 11.55a5.41 5.41 0 0 0 3.97 1.65 5.4 5.4 0 0 0 3.96-1.65c1.09-1.1 1.64-2.43 1.64-3.97s-.55-2.86-1.64-3.95a5.4 5.4 0 0 0-3.96-1.65 5.4 5.4 0 0 0-3.96 1.65c-1.09 1.09-1.64 2.4-1.64 3.95s.55 2.87 1.63 3.97z"/><path d="M-1-7h20v38H-1z"/></g></svg>