<?xml version="1.0" encoding="utf-8"?>
<!-- Generator: Adobe Illustrator 16.0.4, SVG Export Plug-In . SVG Version: 6.00 Build 0)  -->
<!DOCTYPE svg PUBLIC "-//W3C//DTD SVG 1.0//EN" "http://www.w3.org/TR/2001/REC-SVG-20010904/DTD/svg10.dtd">
<svg version="1.0" id="Layer_1" xmlns="http://www.w3.org/2000/svg" xmlns:xlink="http://www.w3.org/1999/xlink" x="0px" y="0px"
	 width="400px" height="275px" viewBox="0 0 400 275" enable-background="new 0 0 400 275" xml:space="preserve">
<g>
	<g>
		<path fill-rule="evenodd" clip-rule="evenodd" fill="#151515" d="M62.858,56.952c0.01,0.245,0.031,0.488,0.031,0.732
			c0.002,61.366,0.002,122.73,0.002,184.096c0,0.244,0,0.484,0,0.781c-5,0-9.966,0-15.01,0c0-0.223,0-0.441,0-0.66
			c0-61.445,0-122.896,0.002-184.339c0-0.204,0.02-0.406,0.031-0.61C52.896,56.952,57.878,56.952,62.858,56.952z"/>
		<path fill-rule="evenodd" clip-rule="evenodd" fill="#151515" d="M91.125,56.952c-0.011,0.306-0.032,0.611-0.032,0.916
			c-0.002,42.7-0.002,85.398-0.002,128.1c0,0.301,0,0.6,0,0.936c-5.023,0-9.975,0-15.033,0c0-43.311,0-86.63,0-129.951
			C81.081,56.952,86.103,56.952,91.125,56.952z"/>
		<path fill-rule="evenodd" clip-rule="evenodd" fill="#151515" d="M117.091,56.952c-0.004,0.286-0.013,0.571-0.013,0.857
			c0,37.776,0,75.549,0,113.322c0,0.285,0,0.568,0,0.961c-0.271,0-0.509,0-0.745,0c-4.508,0-9.014-0.014-13.521,0.018
			c-0.659,0.006-0.768-0.205-0.766-0.795c0.013-37.816,0.012-75.632,0.011-113.447c0-0.305-0.022-0.61-0.034-0.916
			C107.044,56.952,112.067,56.952,117.091,56.952z"/>
		<path fill-rule="evenodd" clip-rule="evenodd" fill="#151515" d="M143.272,56.952c0,34.369-0.002,68.736-0.002,103.104
			c0,0.281,0,0.562,0,0.877c-5.01,0-9.963,0-15.029,0c0-0.293,0-0.586,0-0.881c0-34.062,0-68.122-0.002-102.184
			c0-0.305-0.023-0.61-0.034-0.916C133.228,56.952,138.25,56.952,143.272,56.952z"/>
		<path fill-rule="evenodd" clip-rule="evenodd" fill="#151515" d="M167.493,56.952c0,30.927,0,61.853,0,92.822
			c-4.988,0-9.935,0-14.977,0c0-0.26,0-0.518,0-0.773c0-30.438,0-60.878,0.001-91.316c0-0.244,0.021-0.487,0.031-0.732
			C157.531,56.952,162.512,56.952,167.493,56.952z"/>
	</g>
	<g>
		<g>
			<path fill-rule="evenodd" clip-rule="evenodd" fill="#151515" d="M349.295,145.112c-2.586,0.195-5.195,0.716-7.749,0.517
				c-3.653-0.287-5.946-3.451-5.994-7.665c-0.045-4.053-0.009-8.11-0.011-12.162c0-0.573,0-1.146,0-1.84c-1.635,0-3.11,0-4.708,0
				c0-1.838,0-3.56,0-5.396c1.492,0,2.968,0,4.71,0c0-1.945,0.051-3.786-0.021-5.625c-0.039-0.975,0.241-1.417,1.253-1.605
				c1.764-0.331,3.491-0.837,5.428-1.316c0,2.922,0,5.622,0,8.446c2.264,0,4.38,0,6.617,0c0,1.841,0,3.561,0,5.421
				c-2.161,0-4.273,0-6.609,0c0,1.448,0,2.761,0,4.073c0,3.039-0.018,6.082,0.009,9.123c0.014,1.863,0.727,2.623,2.603,2.674
				c1.489,0.043,2.98-0.057,4.473-0.094C349.295,141.479,349.295,143.296,349.295,145.112z"/>
			<path fill-rule="evenodd" clip-rule="evenodd" fill="#151515" d="M199.963,134.266c2.337-6.312,4.515-12.189,6.693-18.064
				c0.834-2.246,1.71-4.479,2.482-6.745c0.288-0.852,0.705-1.158,1.604-1.136c2.396,0.061,4.791,0.02,7.312,0.02
				c0,12.296,0,24.478,0,36.757c-2.122,0-4.221,0-6.506,0c0-8.223,0-16.35,0-24.473c-0.116-0.021-0.233-0.044-0.349-0.065
				c-0.556,1.461-1.119,2.917-1.662,4.382c-2.259,6.088-4.541,12.168-6.737,18.278c-0.409,1.142-0.953,1.538-2.169,1.513
				c-3.419-0.076-3.417-0.021-4.598-3.26c-2.459-6.749-4.921-13.499-7.388-20.245c-0.157-0.426-0.364-0.832-0.788-1.191
				c0,8.29,0,16.582,0,25.015c-2.21,0-4.304,0-6.507,0c0-12.155,0-24.301,0-36.688c2.869,0,5.729-0.042,8.582,0.061
				c0.333,0.013,0.747,0.804,0.934,1.303c2.8,7.532,5.57,15.075,8.347,22.615C199.395,132.827,199.591,133.308,199.963,134.266z"/>
			<path fill-rule="evenodd" clip-rule="evenodd" fill="#151515" d="M181.373,57.923c5.904,0,11.674-0.317,17.394,0.088
				c6.061,0.428,9.747,4.865,9.888,10.939c0.155,6.648-3.194,10.97-9.436,12.038c-1.512,0.259-3.07,0.278-4.612,0.315
				c-2.126,0.051-4.255,0.013-6.643,0.013c0,2.246,0,4.407,0,6.567c0,2.124,0,4.247,0,6.472c-2.25,0-4.355,0-6.591,0
				C181.373,82.188,181.373,70.01,181.373,57.923z M187.964,75.25c3.181,0,6.111,0.132,9.022-0.037
				c2.84-0.165,4.671-2.284,4.858-5.194c0.192-3.048-1.305-5.665-4.057-5.979c-3.181-0.36-6.432-0.084-9.751-0.084
				c-0.019,0.343-0.067,0.81-0.068,1.274C187.961,68.521,187.964,71.813,187.964,75.25z"/>
			<path fill-rule="evenodd" clip-rule="evenodd" fill="#151515" d="M249.802,69.093c6.987-4.788,17.058-2.269,18.34,9.167
				c0.421,3.75,0.185,7.469-1.635,10.916c-2.762,5.226-8.736,7.38-14.062,4.982c-1.08-0.487-2.008-1.319-3.062-2.026
				c-0.133,0.701-0.279,1.459-0.436,2.264c-1.872,0-3.675,0-5.602,0c0-12.384,0-24.75,0-37.261c2.051,0,4.156,0,6.457,0
				C249.802,60.976,249.802,64.892,249.802,69.093z M261.828,81.099c-0.386-1.9-0.527-3.57-1.072-5.099
				c-0.853-2.398-3.032-3.728-5.461-3.658c-2.397,0.068-4.228,1.43-5.048,3.956c-1.037,3.192-0.954,6.434,0.12,9.593
				c0.778,2.289,2.534,3.555,4.956,3.652c2.35,0.093,4.244-0.961,5.138-3.115C261.177,84.696,261.419,82.768,261.828,81.099z"/>
			<path fill-rule="evenodd" clip-rule="evenodd" fill="#151515" d="M282.574,128.879c3.297-3.515,6.222-6.689,9.232-9.779
				c0.479-0.494,1.33-0.834,2.029-0.865c2.224-0.109,4.456-0.042,7.062-0.042c-3.343,3.627-6.463,7.011-9.63,10.446
				c1.776,2.753,3.536,5.482,5.297,8.211c1.726,2.678,3.452,5.357,5.367,8.327c-2.593,0-4.905,0.048-7.211-0.044
				c-0.39-0.017-0.845-0.569-1.11-0.977c-2.275-3.471-4.512-6.967-6.861-10.615c-1.35,1.453-2.636,2.766-3.817,4.168
				c-0.291,0.347-0.319,0.981-0.328,1.488c-0.036,1.911-0.016,3.825-0.016,5.868c-2.217,0-4.319,0-6.548,0
				c0-12.378,0-24.77,0-37.265c2.159,0,4.264,0,6.534,0C282.574,114.746,282.574,121.592,282.574,128.879z"/>
			<path fill-rule="evenodd" clip-rule="evenodd" fill="#151515" d="M241.102,128.307c0.473-3.104-0.444-5.091-2.505-5.594
				c-3.456-0.843-5.822,0.382-6.898,3.637c-1.981,0-3.992,0-6.148,0c0.068-2.879,1.157-5.123,3.42-6.757
				c3.676-2.661,11.147-2.854,14.946-0.353c2.764,1.819,3.637,4.646,3.712,7.75c0.084,3.522,0.054,7.046,0.008,10.57
				c-0.023,1.555,0.04,2.91,2.281,2.452c0,0.779,0.11,1.387-0.022,1.933c-0.28,1.145,0.925,2.764-1.037,3.392
				c-2.419,0.776-4.901,0.134-6.051-1.603c-0.286-0.434-0.484-0.923-0.771-1.479c-2.876,3.429-6.661,4.097-10.757,3.352
				c-4.414-0.804-7.154-4.188-7.079-8.392c0.077-4.201,2.915-7.389,7.411-8.079c2.416-0.372,4.876-0.457,7.317-0.666
				C239.661,128.405,240.397,128.357,241.102,128.307z M241.164,133.224c-2.585,0.229-5.082,0.367-7.553,0.695
				c-1.815,0.24-2.937,1.619-2.951,3.25c-0.012,1.684,1.026,2.823,2.936,3.218C238.042,141.31,241.533,138.114,241.164,133.224z"/>
			<path fill-rule="evenodd" clip-rule="evenodd" fill="#151515" d="M327.416,137.017c-0.598,4.664-4.509,8.149-9.31,8.734
				c-9.608,1.172-14.589-6.266-14.665-13.243c-0.048-4.482,0.722-8.63,4.132-11.841c3.58-3.374,7.867-3.84,12.38-2.548
				c4.446,1.271,6.865,4.571,7.793,8.912c0.449,2.106,0.353,4.329,0.521,6.723c-6.158,0-12.051,0-17.912,0
				c-0.418,2.847,1.228,5.614,3.784,6.491c2.29,0.786,5.589,0.314,6.721-2.398c0.158-0.373,0.746-0.771,1.152-0.791
				C323.766,136.966,325.522,137.017,327.416,137.017z M310.221,128.764c3.795,0,7.455,0,11.105,0
				c0.327-3.409-1.975-5.944-5.356-5.998C312.643,122.711,310.127,125.284,310.221,128.764z"/>
			<path fill-rule="evenodd" clip-rule="evenodd" fill="#151515" d="M212.336,67.54c2.257,0,4.311,0,6.578,0c0,0.64,0,1.208,0,1.775
				c0,4.859-0.038,9.72,0.011,14.578c0.039,3.788,1.684,5.397,5.103,5.149c2.052-0.148,3.96-1.944,4.381-4.27
				c0.22-1.198,0.336-2.432,0.349-3.651c0.047-4.379,0.029-8.758,0.04-13.137c0-0.098,0.057-0.196,0.123-0.412
				c2.067,0,4.167,0,6.378,0c0,8.924,0,17.811,0,26.792c-1.835,0-3.619,0-5.406,0c-0.178-0.938-0.344-1.808-0.549-2.902
				c-2.834,3.564-6.45,4.256-10.455,3.321c-3.586-0.835-6.078-3.854-6.433-7.518c-0.081-0.849-0.113-1.705-0.115-2.558
				C212.33,79.052,212.336,73.395,212.336,67.54z"/>
			<path fill-rule="evenodd" clip-rule="evenodd" fill="#151515" d="M320.234,84.929c2.198,0,4.212,0,6.224,0
				c0.269,4.495-3.425,8.873-8.23,9.833c-7.895,1.577-14.229-3.129-15.121-11.13c-0.356-3.186-0.188-6.28,0.95-9.276
				c3.069-8.088,13.957-10.262,19.931-4.003c1.704,1.783,2.628,4.216,2.464,6.606c-1.994,0-4.001,0-6.067,0
				c-0.061-0.09-0.179-0.204-0.219-0.343c-0.867-2.932-2.241-4.062-4.927-4.034c-2.553,0.025-4.509,1.538-5.142,4.184
				c-0.678,2.836-0.721,5.723,0.076,8.539c0.915,3.224,4.209,4.817,7.207,3.609C319.156,88.2,319.899,86.727,320.234,84.929z"/>
			<path fill-rule="evenodd" clip-rule="evenodd" fill="#151515" d="M284.471,89.099c0,1.686,0,3.383,0,5.089
				c-4.664,2.343-10.158-0.863-10.17-5.989c-0.024-9.981-0.011-19.964-0.011-29.945c0-0.365,0-0.73,0-1.188c2.23,0,4.339,0,6.695,0
				c0,0.543,0,1.104,0,1.666c0,8.753,0,17.508,0,26.263C280.985,88.556,280.987,88.556,284.471,89.099z"/>
			<path fill-rule="evenodd" clip-rule="evenodd" fill="#151515" d="M262.188,145.129c-2.334,0-4.402,0-6.596,0
				c0-8.939,0-17.813,0-26.813c1.767,0,3.548,0,5.501,0c0.174,0.931,0.36,1.94,0.599,3.234c2.456-3.412,5.752-4.018,9.545-3.581
				c0,2.058,0,4.097,0,6.128c-0.089,0.027-0.138,0.062-0.187,0.057c-6.051-0.613-8.855,1.936-8.862,8.059
				C262.187,136.468,262.188,140.723,262.188,145.129z"/>
			<path fill-rule="evenodd" clip-rule="evenodd" fill="#151515" d="M290.205,67.548c2.204,0,4.31,0,6.51,0
				c0,8.969,0,17.846,0,26.817c-2.161,0-4.276,0-6.51,0C290.205,85.496,290.205,76.621,290.205,67.548z"/>
			<path fill-rule="evenodd" clip-rule="evenodd" fill="#151515" d="M296.969,57.099c0,2.286,0,4.407,0,6.676
				c-2.287,0-4.533,0-6.922,0c0-2.178,0-4.374,0-6.676C292.308,57.099,294.561,57.099,296.969,57.099z"/>
		</g>
	</g>
</g>
<g>
</g>
<g>
</g>
<g>
</g>
<g>
</g>
<g>
</g>
<g>
</g>
</svg>
