<svg xmlns="http://www.w3.org/2000/svg" xmlns:xlink="http://www.w3.org/1999/xlink" width="358.342" height="139.59" viewBox="0 0 358.342 139.59"><defs><path id="a" d="M.208 139.59c-.028-.17-.055-.262-.055-.352-.002-3.346-.002-6.693-.002-10.064.167-.039.301-.086.437-.098.216-.016.433-.006.65-.006 83.061 0 166.121 0 249.181.002.283 0 .566-.027.832.027 0 .094.02.16-.002.182-3.48 3.434-6.963 6.861-10.463 10.309H.208z"/></defs><defs><path id="b" d="M.975 65.276c.662-.105 13.01-.138 14.206-.049.206.172.307.449.444.696a15961.4 15961.4 0 0 1 5.884 10.692c1.612 2.932 3.224 5.863 4.838 8.795.114.207.239.41.39.664.233-.203.318-.449.435-.666 2.015-3.727 4.028-7.453 6.042-11.182l4.496-8.323c.125-.23.255-.456.397-.71.988-.012 1.949-.005 2.909-.006l2.89-.001h2.817l2.89.001c.957.001 1.914-.006 2.826.006.065.119.106.159.106.2.009 15.653.016 31.306.02 46.96 0 .092-.023.184-.041.314-.13.02-.242.051-.355.051-3.179.002-6.357.002-9.537-.002-.071 0-.142-.016-.253-.031-.026-.125-.071-.258-.077-.393-.013-.24-.005-.48-.005-.723 0-10.5 0-20.998-.003-31.5 0-.275.042-.561-.047-.826-.077.012-.1.012-.119.018a.165.165 0 0 0-.059.041c-.028.039-.051.082-.076.121l-.071.127c-3.612 7.02-7.223 14.039-10.836 21.057-.01.021-.033.035-.09.092-.648.092-1.344.027-2.036.041-.723.008-1.445.002-2.167.002H22.58c-.645-1.186-1.236-2.365-1.846-3.539-.611-1.172-1.219-2.348-1.829-3.523-.62-1.197-1.241-2.395-1.862-3.59l-1.828-3.523c-.609-1.176-1.211-2.355-1.826-3.527-.61-1.164-1.196-2.344-1.818-3.482-.197.043-.171.156-.173.242-.007.24-.004.48-.004.723v32.033c-.209.23-.439.164-.646.164-1.541.006-3.083.004-4.625.004-1.444 0-2.89 0-4.334-.002-.237 0-.474-.014-.749-.021-.023-.166-.052-.301-.059-.438-.009-.193-.002-.383-.002-.576V66.242c-.004-.312-.004-.622-.004-.966z"/></defs><defs><path id="c" d="M139.776 48.032c-.017-.136-.039-.25-.043-.366-.079-2.379-.027-46.347.061-47.058.123-.018.257-.046.394-.053.192-.009.386-.003.578-.003 7.704 0 15.409.001 23.113-.002 1.495 0 2.986.01 4.472.17 1.991.212 3.953.558 5.832 1.283.924.356 1.805.793 2.622 1.354 1.812 1.244 3.061 2.907 3.69 5.018.629 2.114.738 4.259.303 6.425-.42 2.084-1.484 3.79-3.091 5.165-.865.739-1.824 1.335-2.838 1.846-.232.117-.462.238-.773.399.175.083.272.138.375.176.764.289 1.541.545 2.292.867.978.419 1.87.99 2.691 1.668 2.178 1.796 3.424 4.127 3.883 6.888.316 1.919.291 3.84-.174 5.736-.662 2.697-2.143 4.865-4.33 6.562-1.693 1.315-3.604 2.208-5.644 2.832a24.206 24.206 0 0 1-5.81 1.041 62.83 62.83 0 0 1-3.248.104c-7.824.01-15.65.006-23.475.004-.281-.001-.569.031-.88-.056zm11.472-21.096v8.381c0 1.348-.002 2.695.003 4.043 0 .183.039.364.062.574.259.012.472.029.685.03 3.827.002 7.654.006 11.48-.003.986-.002 1.973-.061 2.946-.232 1.024-.178 2.013-.466 2.921-.989 1.297-.747 2.137-1.839 2.49-3.301.238-.996.254-1.998.115-3.01-.302-2.202-1.425-3.792-3.477-4.692a8.876 8.876 0 0 0-.812-.302c-1.224-.399-2.495-.526-3.771-.532-3.995-.015-7.99-.007-11.985-.005-.186-.001-.373.019-.657.038zm.03-18.274c-.012.324-.028.56-.029.796v4.114c0 1.829-.002 3.658.003 5.486 0 .23-.066.48.133.724h.554c3.681 0 7.363.009 11.044-.008a13.544 13.544 0 0 0 2.01-.165c.859-.131 1.684-.394 2.443-.835 1.137-.658 1.893-1.611 2.248-2.879a6.601 6.601 0 0 0 .188-2.574c-.222-1.863-1.22-3.149-2.945-3.869a8.373 8.373 0 0 0-1.092-.364c-1.17-.31-2.365-.422-3.572-.423-3.441-.003-6.882-.003-10.323-.003h-.662z"/></defs><defs><path id="d" d="M155.545 95.717c-1.259-.076-4.737-.053-5.341.035-.019.119-.054.254-.061.391-.011.219-.003.434-.003.65 0 5.033.001 10.068-.002 15.1 0 .283.043.572-.066.869-.106.02-.197.047-.288.047-3.514.004-7.027.004-10.579.004-.035-.164-.079-.295-.089-.432-.014-.189-.004-.385-.004-.578 0-15.195 0-30.391.002-45.588 0-.309-.045-.623.064-.962.13-.021.267-.052.405-.062.144-.011.289-.003.434-.003h21.24c1.93 0 3.849.142 5.739.547 1.584.338 3.109.848 4.544 1.607 3.333 1.762 5.593 4.445 6.72 8.039 1.051 3.354 1.068 6.744-.011 10.094-1.478 4.582-4.573 7.596-9.114 9.148-.364.123-.738.211-1.107.322-.153.047-.301.107-.496.18l13.861 17.492c-.059.227-.193.195-.305.195-1.012.004-2.023.002-3.035.002h-9.927c-4.202-5.708-8.394-11.407-12.581-17.097zm-5.355-8.113c.271.014.506.033.742.033 2.574.004 5.147.012 7.722-.002 1.154-.004 2.308-.049 3.452-.227 1.027-.16 2.025-.418 2.955-.891 1.424-.729 2.363-1.863 2.832-3.391.278-.906.357-1.84.352-2.781-.006-.893-.09-1.777-.354-2.635-.472-1.529-1.41-2.66-2.861-3.354a8.812 8.812 0 0 0-1.002-.398 11.039 11.039 0 0 0-3.258-.561c-2.14-.049-4.28-.057-6.421-.074a347.317 347.317 0 0 0-3.536.004c-.207.002-.437-.068-.61.121-.078.566-.096 13.256-.013 14.156z"/></defs><defs><path id="e" d="M198.961 65.169h11.094c.023.155.053.29.059.427.01.217.004.434.004.649V91.81c.268.084.309-.139.393-.256 1.486-2.043 2.967-4.094 4.449-6.141l14.266-19.724c.127-.174.262-.343.418-.548h13.572c-.705 1.125-1.422 2.084-2.1 3.066-.682.992-1.377 1.975-2.064 2.963-.703 1.008-1.404 2.014-2.105 3.023l-2.066 2.961-2.068 2.961-2.064 2.963-2.107 3.021c-.689.986-1.377 1.975-2.064 2.961-.689.986-1.375 1.975-2.066 2.969.09.289.32.439.5.621 4.266 4.35 8.537 8.695 12.807 13.041 2.109 2.148 4.221 4.295 6.328 6.443.145.15.277.307.461.516-.324.109-.588.068-.842.068-3.541.002-7.078.002-10.619.002-.939 0-1.879.002-2.818-.002-.832-.002-.641.068-1.188-.492-2.645-2.701-5.283-5.41-7.924-8.115-1.348-1.377-2.693-2.756-4.041-4.133-.164-.166-.338-.324-.535-.512-.141.164-.258.281-.357.412-1.947 2.572-3.891 5.148-5.848 7.715a1.482 1.482 0 0 0-.32.992c.016 1.109.008 2.217.004 3.324 0 .238-.014.475-.023.75-.162.021-.299.057-.436.057-3.418.004-6.84.002-10.258.002-.119 0-.234-.018-.389-.033-.021-.152-.053-.289-.061-.424-.008-.193-.002-.385-.002-.576V66.167c-.004-.306.006-.616.01-.998z"/></defs><defs><path id="f" d="M100.119.572h11.351c.026.148.061.281.073.417.013.144.004.29.004.434 0 9.464-.003 18.927.002 28.39.001 1.448-.075 2.889-.304 4.319-.485 3.023-1.547 5.803-3.496 8.205-1.657 2.042-3.737 3.525-6.122 4.597-1.898.854-3.886 1.404-5.934 1.755-3.27.562-6.562.649-9.862.399-2.89-.219-5.722-.746-8.425-1.843-2.375-.963-4.484-2.317-6.208-4.236-1.81-2.015-2.94-4.381-3.591-6.993-.456-1.833-.622-3.7-.67-5.581-.008-.289-.006-.577-.007-.867 0-9.367 0-18.734.003-28.101 0-.283-.049-.575.077-.871.122-.014.239-.041.355-.041L78.369.554c.03.175.065.31.072.446.011.217.003.434.003.65 0 9.367.002 18.734-.002 28.101 0 1.255.037 2.504.293 3.737.098.471.215.938.367 1.395.721 2.159 2.149 3.666 4.243 4.549 1.117.472 2.29.721 3.49.863 1.682.2 3.365.176 5.045-.006 1.151-.125 2.28-.355 3.365-.781 2.056-.808 3.426-2.265 4.127-4.354a12.21 12.21 0 0 0 .602-3.184c.049-.865.069-1.732.07-2.598.004-9.271.003-18.542.004-27.813 0-.308-.04-.623.071-.987z"/></defs><defs><path id="g" d="M299.92 103.934c.084 1.082.057 8.111-.037 8.697-.123.014-.26.039-.398.047-.166.008-.336.004-.504.004h-37.737c-.037-.164-.084-.295-.098-.432-.014-.189-.004-.385-.004-.578V66.017c0-.308.012-.616.018-.864.072-.073.086-.094.104-.105a.15.15 0 0 1 .07-.021c11.941-.008 23.885-.014 35.826-.019.096 0 .188.023.281.04.023.004.041.027.061.043.098.605.145 6.023.066 8.217-.004.139-.039.277-.061.43-.117.023-.207.055-.299.057-.24.008-.48.006-.721.006-7.924 0-15.846 0-23.77.002-.283 0-.566.014-.797.018-.066.072-.086.088-.098.107s-.02.045-.02.068c-.008 3.297-.014 6.598-.018 9.895 0 .168.012.336.021.539.139.029.273.072.408.078.215.014.434.004.648.004H294.488c.035.168.086.305.086.438.004 2.793.004 5.584.002 8.381 0 .113-.021.23-.037.385-.166.021-.303.043-.438.047-.217.01-.434.002-.65.002-6.91.002-13.824 0-20.732.002-.285 0-.568.014-.805.018-.062.066-.084.084-.096.104a.151.151 0 0 0-.018.066c-.008 3.156-.014 6.307-.018 9.463 0 .119.018.236.027.393.143.023.277.062.412.07.217.012.434.002.652.002 8.715 0 17.432 0 26.148.002.291-.004.579-.033.899.049z"/></defs><defs><path id="h" d="M.096.552h.725c7.61 0 15.219.005 22.829-.003 2.201-.001 4.375.209 6.509.747 1.713.431 3.342 1.069 4.853 1.996 2.959 1.814 4.96 4.384 5.969 7.697.927 3.043.963 6.127.117 9.193-1.092 3.955-3.518 6.842-7.167 8.705-1.685.86-3.477 1.401-5.334 1.729-1.735.307-3.485.431-5.247.428-3.661-.004-7.321-.001-10.981 0-.259.001-.518.019-.825.029-.054.832-.021 1.62-.026 2.407-.007.819-.001 1.638-.001 2.456V43.162c0 .819.007 1.638-.002 2.457-.009.79.041 1.581-.04 2.414-.157.021-.292.054-.429.054-3.517.003-7.032.003-10.547 0-.139 0-.279-.024-.353-.03-.074-.067-.097-.081-.108-.101a.15.15 0 0 1-.017-.069C.013 47.694 0 47.503 0 47.311.004 31.803.007 16.294.013.787c0-.044.029-.088.083-.235zM11.59 22.897c.211.011.377.026.542.026 2.89 0 5.779.009 8.668-.008a22.28 22.28 0 0 0 3.382-.254c1.121-.18 2.211-.467 3.223-1.005 1.561-.829 2.529-2.111 2.925-3.83.269-1.165.288-2.344.11-3.518-.338-2.222-1.54-3.799-3.632-4.665a10.554 10.554 0 0 0-1.156-.405c-1.375-.394-2.789-.545-4.21-.558-3.154-.031-6.309-.016-9.462-.015-.137 0-.274.037-.399.055-.09.687-.084 13.538.009 14.177z"/></defs><defs><path id="i" d="M348.143 16.757c-.057-.071-.141-.158-.207-.255-1.988-2.859-4.688-4.762-7.996-5.743-5.262-1.561-10.201-.803-14.689 2.396-2.479 1.768-4.264 4.114-5.168 7.04-1.328 4.304-.574 8.293 2.107 11.887 2.105 2.821 4.938 4.625 8.318 5.535 4.084 1.098 8.062.756 11.883-1.082a14.281 14.281 0 0 0 5.895-5.178c.104-.158.221-.306.316-.442.088.005.143-.006.184.012 3.145 1.447 6.207 3.074 9.432 4.354.037.016.062.066.125.136-.047.242-.221.445-.357.662-2.207 3.483-5.109 6.247-8.662 8.332-2.998 1.763-6.227 2.885-9.664 3.429-2.486.393-4.982.504-7.486.241-6.592-.696-12.34-3.234-17.025-7.988-3.043-3.084-5.121-6.729-6.092-10.969-1.248-5.46-.521-10.67 2.137-15.592 2.266-4.198 5.561-7.408 9.672-9.79 2.943-1.706 6.107-2.808 9.469-3.354 2.533-.412 5.076-.508 7.627-.233 5.342.577 10.166 2.455 14.385 5.818a24.628 24.628 0 0 1 5.203 5.673c.107.16.209.323.309.489.021.038.021.089.033.135-.006.022-.008.047-.018.066a.117.117 0 0 1-.051.05 215.95 215.95 0 0 1-9.229 4.277c-.09.04-.178.075-.271.1-.046.014-.094 0-.18-.006z"/></defs><defs><path id="j" d="M91.29 75.95l-5.286-7.25c0-.088-.005-.113.001-.135a.141.141 0 0 1 .04-.059c1.439-1.13 2.878-2.26 4.318-3.387.054-.042.123-.065.225-.118.108.121.225.236.326.364 1.294 1.646 2.584 3.297 3.881 4.939.145.184.243.42.54.52l2.548-3.239c.59.341 1.048.802 1.55 1.2.528.418 1.042.855 1.562 1.283l1.505 1.252c-.146.383-.408.635-.613.926-.223.314-.46.615-.691.926l-.648.869c-.231.307-.463.615-.693.924-.214.287-.426.578-.659.895.133.191.245.369.375.537 5.228 6.67 10.458 13.338 15.686 20.006 4.116 5.248 8.23 10.496 12.343 15.746.159.199.352.381.446.619-.074.059-.109.111-.145.111-21.67.006-43.34.01-65.01.01-.063 0-.126-.043-.18-.062-.01-.043-.022-.068-.021-.09a.151.151 0 0 1 .024-.066c.025-.043.051-.08.08-.117.073-.098.146-.193.22-.289 9.388-12.031 18.775-24.068 28.164-36.104.014-.02.025-.041.037-.062.012-.02.021-.044.075-.149zm-14.364 29.828c.062.023.127.064.191.064 11.894 0 23.788-.006 35.681-.014.039 0 .077-.047.142-.09-.055-.256-.253-.441-.403-.645-3.103-4.262-6.209-8.521-9.316-12.781-2.524-3.461-5.049-6.926-7.576-10.387-.15-.203-.266-.449-.554-.602a49306.672 49306.672 0 0 0-18.162 24.305c-.021.029-.003.087-.003.15z"/></defs><defs><path id="k" d="M331.467 73.981h-10.519c-1.727 0-3.453 0-5.164-.002-.109-.621-.145-7.429-.055-8.617.123-.027.254-.068.391-.079.166-.015.336-.004.506-.004H357.3c.285 0 .57.013.801.019.07.062.09.077.104.097a.132.132 0 0 1 .018.067c.01 2.648.018 5.297.023 7.945 0 .145-.004.287-.016.432-.004.045-.035.088-.061.143-.266.141-.559.078-.842.078-4.6.004-9.201.002-13.799.002h-.893c-.039.172-.088.305-.096.438-.014.266-.006.529-.006.797 0 12.137 0 24.273-.002 36.41 0 .311.039.625-.061.961-.143.02-.281.055-.418.055-3.322.002-6.648.002-9.971 0-.139 0-.281-.016-.463-.027-.023-.16-.055-.295-.059-.43-.012-.242-.006-.482-.006-.723 0-12.188 0-24.371-.002-36.557.002-.31.047-.626-.084-1.005z"/></defs><defs><path id="l" d="M219.781 38.925c.982.085 1.871.034 2.756.043.893.009 1.783.001 2.674.001h15.964c.891 0 1.783-.002 2.674.001.887.004 1.775-.018 2.701.019.02.228.051.415.053.6.066 4.215.029 7.528-.094 8.098-.078.016-.17.051-.26.051-12.496 0-24.992-.004-37.488-.01-.066 0-.133-.046-.197-.07-.1-.76-.146-37.571-.057-46.664.002-.188.021-.377.033-.577.117-.03.209-.073.299-.073 3.564-.001 7.127.002 10.691.009.064 0 .131.046.244.089.016 1.047.006 2.105.008 3.162.002 1.084 0 2.167 0 3.251V35.678l-.001 3.247z"/></defs><defs><path id="m" d="M271.408 48.053c-.025-.129-.057-.219-.057-.31-.004-15.693-.004-31.386-.004-47.074.273-.188.547-.112.801-.113 2.84-.007 5.682-.004 8.523-.004.527 0 1.059-.003 1.586.001.166.001.328.02.432.027.072.063.094.076.105.095.01.021.016.045.018.069.008.192.023.384.023.575-.002 15.48-.004 30.96-.008 46.439 0 .07-.027.14-.043.212-.205.193-.459.112-.689.113-2.143.006-4.285.004-6.426.004-1.205 0-2.41.001-3.611-.003-.21.002-.421-.019-.65-.031z"/></defs><use xlink:href="#a" overflow="visible" fill-rule="evenodd" clip-rule="evenodd" fill="#FFF"/><use xlink:href="#b" overflow="visible" fill-rule="evenodd" clip-rule="evenodd" fill="#FFF"/><use xlink:href="#c" overflow="visible" fill-rule="evenodd" clip-rule="evenodd" fill="#FFF"/><use xlink:href="#d" overflow="visible" fill-rule="evenodd" clip-rule="evenodd" fill="#FFF"/><use xlink:href="#e" overflow="visible" fill-rule="evenodd" clip-rule="evenodd" fill="#FFF"/><use xlink:href="#f" overflow="visible" fill-rule="evenodd" clip-rule="evenodd" fill="#FFF"/><use xlink:href="#g" overflow="visible" fill-rule="evenodd" clip-rule="evenodd" fill="#FFF"/><use xlink:href="#h" overflow="visible" fill-rule="evenodd" clip-rule="evenodd" fill="#FFF"/><use xlink:href="#i" overflow="visible" fill-rule="evenodd" clip-rule="evenodd" fill="#FFF"/><use xlink:href="#j" overflow="visible" fill-rule="evenodd" clip-rule="evenodd" fill="#FFF"/><use xlink:href="#k" overflow="visible" fill-rule="evenodd" clip-rule="evenodd" fill="#FFF"/><use xlink:href="#l" overflow="visible" fill-rule="evenodd" clip-rule="evenodd" fill="#FFF"/><use xlink:href="#m" overflow="visible" fill-rule="evenodd" clip-rule="evenodd" fill="#FFF"/><clipPath id="n"><use xlink:href="#a" overflow="visible"/></clipPath><clipPath id="o" clip-path="url(#n)"><use xlink:href="#b" overflow="visible"/></clipPath><clipPath id="p" clip-path="url(#o)"><use xlink:href="#c" overflow="visible"/></clipPath><clipPath id="q" clip-path="url(#p)"><use xlink:href="#d" overflow="visible"/></clipPath><clipPath id="r" clip-path="url(#q)"><use xlink:href="#e" overflow="visible"/></clipPath><clipPath id="s" clip-path="url(#r)"><use xlink:href="#f" overflow="visible"/></clipPath><clipPath id="t" clip-path="url(#s)"><use xlink:href="#g" overflow="visible"/></clipPath><clipPath id="u" clip-path="url(#t)"><use xlink:href="#h" overflow="visible"/></clipPath><clipPath id="v" clip-path="url(#u)"><use xlink:href="#i" overflow="visible"/></clipPath><clipPath id="w" clip-path="url(#v)"><use xlink:href="#j" overflow="visible"/></clipPath><clipPath id="x" clip-path="url(#w)"><use xlink:href="#k" overflow="visible"/></clipPath><clipPath id="y" clip-path="url(#x)"><use xlink:href="#l" overflow="visible"/></clipPath></svg>