<svg xmlns="http://www.w3.org/2000/svg" version="1" viewBox="0 0 500 139.493"><path fill="#FFF" d="M15.742 13.205V127c0 2.371 1.922 4.293 4.293 4.293h9.305V8.912h-9.305c-2.371 0-4.293 1.922-4.293 4.293m54.391 0V127c0 2.371 1.922 4.293 4.293 4.293h9.305V8.912h-9.305c-2.371 0-4.293 1.922-4.293 4.293m63.64-3.985h-9.305V131.6h9.305c2.37 0 4.293-1.922 4.293-4.292V13.513c0-2.37-1.923-4.293-4.293-4.293m-22.875 79.92v42.153h-9.308c-2.37 0-4.291-1.921-4.291-4.291V8.912h9.308c2.37 0 4.291 1.921 4.291 4.291V89.14zM52.482 76.901h-9.545V8.912h9.545c2.238 0 4.053 1.815 4.053 4.053v59.882c0 2.24-1.815 4.054-4.053 4.054m137.203-33.508v19.885h-10.836V8.903h22.177c12.972 0 19.886 6.758 19.886 17.283 0 10.447-6.914 17.206-19.809 17.206h-11.418zm0-24.508v14.603h11.147c5.903 0 8.971-2.408 8.971-7.302 0-4.854-3.068-7.301-8.971-7.301h-11.147zm84.745 22.681c0 15.031-9.593 22.683-23.42 22.683-13.827 0-23.419-7.651-23.419-22.683V8.903h10.875v32.119c0 8.934 5.049 12.856 12.544 12.856 7.497 0 12.546-3.923 12.546-12.856V8.903h10.874v32.663zm30.717-32.662c12.661 0 20.624 4.699 20.624 15.068 0 5.478-3.34 9.866-7.885 11.536 4.971 1.669 9.049 6.331 9.049 12.195 0 10.448-7.418 15.575-20.468 15.575h-23.536V8.904h22.216zm-11.379 9.554v12.701h11.107c5.399 0 9.594-1.127 9.594-6.409 0-5.126-4.272-6.292-9.633-6.292h-11.068zm0 22.216v13.05l12.156.039c5.981 0 9.75-1.398 9.75-6.603 0-5.088-3.769-6.486-9.75-6.486h-12.156zm79.266 22.604h-39.577V8.904h10.836v44.237h28.741zm5.475-54.375h10.837v54.374h-10.837zm67.923 11.186l-9.32 5.709c-3.068-4.7-8-7.496-14.059-7.496-9.867 0-17.168 7.225-17.168 17.789.039 10.914 7.574 17.788 17.168 17.788 6.02 0 10.914-2.719 14.176-7.457l8.855 6.369c-4.816 7.069-13.012 11.497-22.955 11.497-16.738 0-28.547-11.847-28.547-28.197 0-16.351 11.809-28.197 28.547-28.197 10.021 0 18.877 4.583 23.303 12.195M234.816 131.325h-4.738V82.35l-20.74 42.528h-5.011l-20.74-42.295v48.742h-4.738V76.951h7.146l20.857 42.373 20.817-42.373h7.147zm57.983 0h-5.088l-6.604-15.885h-28.274l-6.603 15.885h-4.933l22.837-54.373h5.826l22.839 54.373zm-38.063-20.389h24.469L266.97 81.572l-12.234 29.364zm65.245-33.985c12.001 0 18.759 5.476 18.759 15.107 0 9.36-7.146 15.147-18.721 15.147h-2.136l20.585 24.119h-5.903l-20.274-24.119h-8.311v24.119h-4.739V76.951h20.74zm-16.001 4.466v21.479h15.962c9.011 0 13.905-3.846 13.905-10.837 0-6.951-4.972-10.642-13.905-10.642H303.98zm55.399 24.818h-7.186v25.09h-4.738V76.951h4.738v24.779h7.263l23.886-24.779h6.137l-26.217 26.76 27.847 27.614h-6.447zm74.74 25.09h-37.441V76.951h37.17v4.466h-32.432v20.313h31.498v4.427h-31.498v20.701h32.703zm50.139-49.869h-19.613v49.87h-4.739v-49.87H440.33v-4.505h43.928z"/></svg>