<svg xmlns="http://www.w3.org/2000/svg" version="1" width="300" height="185"><rect width="100%" height="100%" fill="none"/><g class="currentLayer"><g><g fill-rule="evenodd" clip-rule="evenodd" fill="#FFF"><path d="M14.906.001c.01.244.031.486.031.729.002 61.079.002 122.155.002 183.232v.777H0v-.656C0 122.925 0 61.764.002.608c0-.203.02-.404.031-.607h14.873zM43.041.001c-.011.304-.032.608-.032.912l-.001 127.499v.932H28.045V.002L43.041.001zM68.885.001c-.004.285-.013.568-.013.854v113.748h-.742c-4.487 0-8.972-.014-13.458.018-.656.006-.765-.204-.762-.791.013-37.64.012-75.278.011-112.916 0-.303-.022-.607-.034-.912L68.885.001zM94.943.001l-.002 102.621v.873H79.982v-.878L79.981.913c0-.303-.023-.607-.035-.912h14.997zM119.051.001v92.387h-14.907v-.77l.001-90.889c0-.243.021-.485.031-.729l14.875.001z"/></g><g fill-rule="evenodd" clip-rule="evenodd" fill="#FFF"><path d="M300 87.747c-2.573.195-5.172.713-7.713.515-3.637-.286-5.919-3.436-5.966-7.629-.046-4.034-.009-8.072-.011-12.105v-1.831h-4.686v-5.371h4.688c0-1.936.05-3.768-.021-5.598-.039-.97.24-1.411 1.246-1.598 1.757-.33 3.475-.833 5.403-1.31v8.406h6.587v5.396h-6.58v4.054c0 3.025-.017 6.053.01 9.081.013 1.854.723 2.611 2.591 2.661 1.481.043 2.965-.057 4.451-.094l.001 5.423zM151.369 76.951c2.326-6.281 4.494-12.132 6.662-17.979.829-2.235 1.701-4.457 2.469-6.713.287-.848.703-1.153 1.598-1.13 2.385.06 4.768.02 7.277.02v36.584H162.9V63.376l-.348-.065c-.552 1.454-1.114 2.903-1.654 4.361-2.248 6.059-4.52 12.111-6.705 18.193-.408 1.136-.949 1.53-2.16 1.505-3.402-.075-3.4-.021-4.575-3.244a17258.04 17258.04 0 0 0-7.353-20.15c-.157-.424-.362-.828-.784-1.186v24.898h-6.477V51.172c2.855 0 5.701-.042 8.541.061.332.012.743.8.929 1.297 2.787 7.497 5.544 15.004 8.308 22.509.181.482.376.959.747 1.912zM132.865.967c5.876 0 11.62-.316 17.312.087 6.033.426 9.701 4.843 9.842 10.889.154 6.617-3.179 10.918-9.392 11.982-1.505.257-3.056.277-4.59.314-2.117.05-4.236.012-6.612.012v12.978h-6.561l.001-36.262zm6.561 17.246c3.166 0 6.083.131 8.98-.037 2.826-.164 4.648-2.273 4.836-5.17.191-3.033-1.299-5.638-4.039-5.95-3.165-.359-6.402-.083-9.705-.083-.019.341-.066.806-.067 1.268-.009 3.275-.005 6.551-.005 9.972zM200.973 12.085c6.955-4.766 16.978-2.258 18.254 9.124.419 3.732.185 7.434-1.628 10.865-2.748 5.201-8.693 7.345-13.995 4.959-1.075-.485-1.999-1.313-3.05-2.017-.131.698-.277 1.452-.433 2.253h-5.574V.183h6.426v11.902zm11.97 11.949c-.384-1.892-.523-3.554-1.067-5.075-.848-2.387-3.018-3.71-5.435-3.641-2.388.068-4.208 1.423-5.024 3.938-1.032 3.178-.95 6.403.119 9.548.775 2.279 2.522 3.538 4.934 3.635 2.338.092 4.224-.957 5.112-3.101.712-1.723.954-3.643 1.361-5.304zM233.591 71.59c3.282-3.499 6.192-6.659 9.19-9.733.477-.492 1.324-.83 2.02-.862 2.213-.108 4.436-.042 7.027-.042-3.326 3.61-6.432 6.978-9.584 10.397 1.769 2.739 3.52 5.457 5.272 8.172l5.342 8.288c-2.581 0-4.882.048-7.177-.044-.388-.017-.842-.566-1.106-.972-2.264-3.454-4.49-6.934-6.828-10.565-1.345 1.446-2.623 2.753-3.799 4.148-.292.345-.318.978-.328 1.48-.035 1.903-.015 3.808-.015 5.842h-6.519v-37.09h6.504l.001 20.981zM192.314 71.021c.47-3.089-.443-5.067-2.493-5.567-3.44-.839-5.794.38-6.865 3.619h-6.121c.068-2.865 1.151-5.099 3.405-6.725 3.657-2.648 11.096-2.84 14.876-.351 2.75 1.811 3.618 4.624 3.694 7.714.084 3.506.053 7.012.008 10.521-.024 1.547.039 2.896 2.271 2.44 0 .775.11 1.38-.023 1.924-.278 1.139.922 2.75-1.032 3.375-2.407.772-4.878.134-6.021-1.595-.285-.432-.482-.918-.768-1.473-2.863 3.412-6.631 4.077-10.707 3.335-4.395-.799-7.12-4.168-7.046-8.352.076-4.181 2.902-7.354 7.376-8.041 2.405-.371 4.854-.455 7.284-.663.727-.063 1.46-.111 2.162-.161zm.061 4.893c-2.571.229-5.057.365-7.516.692-1.809.239-2.925 1.611-2.939 3.235-.01 1.676 1.022 2.81 2.923 3.202 4.425.92 7.9-2.261 7.532-7.129zM278.223 79.69c-.594 4.643-4.487 8.111-9.265 8.694-9.564 1.165-14.521-6.236-14.597-13.182-.047-4.461.718-8.589 4.113-11.786 3.562-3.358 7.829-3.822 12.32-2.536 4.427 1.265 6.834 4.55 7.758 8.871.445 2.096.351 4.308.518 6.691h-17.827c-.417 2.834 1.221 5.588 3.766 6.46 2.28.783 5.562.314 6.688-2.387.158-.371.743-.767 1.147-.787 1.746-.088 3.494-.038 5.379-.038zm-17.113-8.215h11.052c.327-3.393-1.964-5.917-5.33-5.97-3.313-.054-5.817 2.507-5.722 5.97zM163.683 10.539h6.547v1.767c0 4.837-.036 9.674.011 14.51.039 3.771 1.677 5.372 5.079 5.125 2.043-.148 3.941-1.935 4.359-4.25.22-1.192.335-2.42.348-3.634.047-4.358.03-8.717.041-13.075 0-.097.055-.195.121-.41h6.348v26.666h-5.379c-.179-.934-.343-1.799-.549-2.889-2.819 3.548-6.42 4.236-10.405 3.306-3.569-.831-6.048-3.836-6.401-7.482a27.045 27.045 0 0 1-.115-2.546c-.011-5.63-.005-11.261-.005-17.088zM271.077 27.846h6.193c.268 4.474-3.408 8.832-8.192 9.787-7.856 1.57-14.162-3.114-15.051-11.078-.353-3.171-.187-6.251.946-9.233 3.056-8.05 13.893-10.214 19.839-3.984 1.695 1.775 2.614 4.196 2.452 6.576h-6.04c-.06-.089-.179-.203-.218-.341-.862-2.918-2.23-4.043-4.903-4.016-2.54.025-4.488 1.531-5.118 4.164-.674 2.823-.717 5.696.076 8.5.911 3.208 4.188 4.795 7.173 3.592 1.768-.711 2.508-2.178 2.843-3.967zM235.48 31.996v5.065c-4.643 2.332-10.11-.859-10.123-5.961-.024-9.935-.01-19.871-.01-29.805V.113h6.664v27.798c0 3.545.002 3.545 3.469 4.085zM213.301 87.764h-6.563V61.076h5.474c.175.927.359 1.932.598 3.22 2.444-3.396 5.725-3.999 9.498-3.564v6.099c-.088.027-.135.062-.185.057-6.021-.611-8.814 1.926-8.821 8.021-.003 4.235-.001 8.47-.001 12.855zM241.187 10.547h6.479v26.691h-6.479V10.547zM247.919.147v6.645h-6.89V.147h6.89z"/></g></g></g></svg>