<svg xmlns="http://www.w3.org/2000/svg" xmlns:xlink="http://www.w3.org/1999/xlink" width="500" height="200" viewBox="0 0 500 200"><defs><path id="a" d="M71.036 169.795c-.028-.17-.055-.262-.055-.352-.002-3.346-.002-6.693-.002-10.064.167-.039.301-.086.437-.098.216-.016.433-.006.65-.006 83.061 0 166.122 0 249.182.002.282 0 .565-.027.832.027 0 .094.02.16-.002.182-3.481 3.434-6.964 6.861-10.464 10.309H71.036z"/></defs><defs><path id="b" d="M71.804 95.48c.662-.105 13.01-.137 14.206-.049.206.172.307.45.444.697a15961.4 15961.4 0 0 1 5.884 10.692c1.612 2.932 3.224 5.863 4.838 8.795.114.207.239.41.39.664.233-.203.318-.449.435-.666 2.015-3.727 4.028-7.453 6.042-11.182l4.496-8.323c.125-.23.255-.456.397-.71.988-.011 1.949-.005 2.909-.006l2.89-.001h2.817l2.89.001c.957.001 1.914-.005 2.826.006.065.119.106.159.106.2.009 15.653.016 31.306.02 46.96 0 .092-.023.184-.041.314-.13.02-.242.051-.355.051-3.179.002-6.357.002-9.537-.002-.071 0-.142-.016-.253-.031-.026-.125-.071-.258-.077-.393-.013-.24-.005-.48-.005-.723 0-10.5 0-20.998-.003-31.5 0-.275.042-.561-.047-.826-.077.012-.1.012-.119.018a.165.165 0 0 0-.059.041c-.028.039-.051.082-.076.121l-.071.127c-3.612 7.02-7.223 14.039-10.836 21.057-.01.021-.033.035-.09.092-.648.092-1.344.027-2.036.041-.723.008-1.445.002-2.167.002h-4.213c-.645-1.186-1.236-2.365-1.846-3.539-.611-1.172-1.219-2.348-1.829-3.523-.62-1.197-1.241-2.395-1.862-3.59l-1.828-3.523c-.609-1.176-1.211-2.355-1.826-3.527-.61-1.164-1.196-2.344-1.818-3.482-.197.043-.171.156-.173.242-.007.24-.004.48-.004.723v32.033c-.209.23-.439.164-.646.164-1.541.006-3.083.004-4.625.004-1.444 0-2.89 0-4.334-.002-.237 0-.474-.014-.749-.021-.023-.166-.052-.301-.059-.438-.009-.193-.002-.383-.002-.576V96.446c-.004-.311-.004-.622-.004-.966z"/></defs><defs><path id="c" d="M210.604 78.236c-.017-.136-.039-.25-.043-.366-.079-2.379-.027-46.347.061-47.058.123-.018.257-.046.394-.053.192-.009.386-.003.578-.003 7.704 0 15.409.001 23.113-.002 1.495 0 2.986.01 4.473.17 1.991.212 3.952.558 5.832 1.283.923.356 1.805.793 2.622 1.354 1.812 1.244 3.062 2.907 3.689 5.018.63 2.114.738 4.259.303 6.425-.42 2.084-1.483 3.79-3.091 5.165-.865.739-1.824 1.335-2.837 1.846-.232.117-.462.238-.773.399.174.083.272.138.375.176.763.289 1.541.545 2.292.867.977.419 1.87.99 2.691 1.668 2.178 1.796 3.424 4.127 3.883 6.888.317 1.919.291 3.84-.174 5.736-.662 2.697-2.143 4.865-4.329 6.562-1.694 1.315-3.604 2.208-5.644 2.832a24.215 24.215 0 0 1-5.81 1.041 62.791 62.791 0 0 1-3.247.104c-7.824.01-15.65.006-23.475.004-.284 0-.571.031-.883-.056zm11.473-21.096v8.381c0 1.348-.002 2.695.003 4.043 0 .183.039.364.062.574.259.012.472.029.685.03 3.827.002 7.654.006 11.48-.003.986-.002 1.972-.061 2.946-.232 1.025-.178 2.013-.466 2.921-.989 1.297-.747 2.137-1.839 2.49-3.301.239-.996.254-1.998.115-3.01-.302-2.202-1.425-3.792-3.477-4.692a8.987 8.987 0 0 0-.812-.302c-1.224-.399-2.495-.526-3.771-.532-3.995-.015-7.99-.007-11.985-.005-.186 0-.374.02-.657.038zm.029-18.274c-.012.324-.028.56-.029.796v4.114c0 1.829-.002 3.658.003 5.486 0 .23-.066.48.133.724h.554c3.681 0 7.363.009 11.044-.008a13.569 13.569 0 0 0 2.011-.165 6.89 6.89 0 0 0 2.443-.835c1.136-.658 1.893-1.611 2.248-2.879a6.582 6.582 0 0 0 .188-2.574c-.222-1.863-1.22-3.149-2.945-3.869a8.323 8.323 0 0 0-1.092-.364c-1.169-.31-2.364-.422-3.572-.423-3.441-.003-6.882-.003-10.323-.003h-.663z"/></defs><defs><path id="d" d="M226.374 125.922c-1.259-.076-4.737-.053-5.341.035-.019.119-.054.254-.061.391-.011.219-.003.434-.003.65 0 5.033.001 10.068-.002 15.1 0 .283.043.572-.066.869-.106.02-.197.047-.288.047-3.514.004-7.027.004-10.579.004-.035-.164-.079-.295-.089-.432-.014-.189-.004-.385-.004-.578 0-15.195 0-30.391.002-45.587 0-.309-.045-.624.064-.962.13-.021.267-.051.405-.062.144-.01.289-.003.434-.003h21.24c1.93 0 3.848.142 5.74.546 1.584.338 3.109.849 4.543 1.607 3.333 1.763 5.593 4.446 6.719 8.04 1.051 3.354 1.069 6.744-.01 10.094-1.477 4.582-4.573 7.596-9.114 9.148-.365.123-.739.211-1.107.322-.154.047-.301.107-.497.18l13.86 17.492c-.058.227-.192.195-.305.195-1.011.004-2.023.002-3.035.002h-9.927c-4.2-5.709-8.392-11.409-12.579-17.098zm-5.355-8.113c.271.014.506.033.742.033 2.574.004 5.147.012 7.722-.002 1.154-.004 2.308-.049 3.452-.227 1.027-.16 2.025-.418 2.955-.891 1.423-.729 2.363-1.863 2.832-3.391.278-.906.358-1.84.352-2.781-.006-.893-.09-1.777-.354-2.635-.471-1.529-1.41-2.66-2.861-3.354a8.74 8.74 0 0 0-1.002-.398 11.039 11.039 0 0 0-3.258-.561c-2.14-.049-4.28-.057-6.421-.074a347.317 347.317 0 0 0-3.536.004c-.207.002-.437-.068-.61.121-.078.566-.096 13.255-.013 14.156z"/></defs><defs><path id="e" d="M269.789 95.374h11.095c.023.155.052.291.059.426.009.217.004.434.004.65v25.565c.267.084.308-.139.392-.256 1.487-2.043 2.968-4.094 4.45-6.141l14.266-19.724c.127-.174.262-.343.418-.548h13.571c-.705 1.125-1.421 2.083-2.099 3.067-.683.991-1.377 1.975-2.064 2.962-.703 1.008-1.404 2.014-2.105 3.023l-2.066 2.961-2.069 2.961-2.064 2.963-2.106 3.021c-.689.986-1.377 1.975-2.065 2.961s-1.374 1.975-2.066 2.969c.09.289.321.439.501.621 4.265 4.35 8.537 8.695 12.807 13.041 2.109 2.148 4.22 4.295 6.327 6.443.146.15.278.307.462.516-.325.109-.588.068-.842.068-3.541.002-7.079.002-10.62.002-.939 0-1.878.002-2.817-.002-.833-.002-.642.068-1.188-.492-2.645-2.701-5.284-5.41-7.925-8.115-1.348-1.377-2.692-2.756-4.04-4.133-.164-.166-.338-.324-.536-.512-.141.164-.257.281-.356.412-1.948 2.572-3.891 5.148-5.849 7.715a1.481 1.481 0 0 0-.319.992c.015 1.109.007 2.217.004 3.324 0 .238-.015.475-.024.75-.161.021-.299.057-.435.057-3.419.004-6.841.002-10.259.002-.118 0-.234-.018-.389-.033-.021-.152-.052-.289-.06-.424-.009-.193-.002-.385-.002-.576V96.373c-.004-.308.005-.617.009-.999z"/></defs><defs><path id="f" d="M170.947 30.777h11.351c.026.148.061.281.073.417.013.144.004.29.004.434 0 9.464-.003 18.927.002 28.39.001 1.448-.075 2.889-.304 4.319-.485 3.023-1.547 5.803-3.496 8.205-1.657 2.042-3.737 3.525-6.122 4.597-1.898.854-3.886 1.404-5.934 1.755-3.27.562-6.562.649-9.862.399-2.89-.219-5.722-.746-8.425-1.843-2.375-.963-4.484-2.317-6.208-4.236-1.81-2.015-2.94-4.381-3.591-6.993-.456-1.833-.622-3.7-.67-5.581-.008-.289-.006-.577-.007-.867 0-9.367 0-18.734.003-28.101 0-.283-.049-.575.077-.871.122-.014.239-.041.355-.041l11.004-.001c.029.176.063.311.071.447.011.217.003.434.003.65 0 9.367.002 18.734-.002 28.101 0 1.255.037 2.504.293 3.737.098.471.215.938.367 1.395.721 2.159 2.149 3.666 4.243 4.549 1.117.472 2.29.721 3.49.863 1.682.2 3.365.176 5.045-.006 1.151-.125 2.28-.355 3.365-.781 2.056-.808 3.426-2.265 4.127-4.354a12.21 12.21 0 0 0 .602-3.184c.049-.865.069-1.732.07-2.598.004-9.271.003-18.542.004-27.813.001-.309-.038-.624.072-.988z"/></defs><defs><path id="g" d="M370.748 134.139c.084 1.082.057 8.111-.037 8.697-.123.014-.259.039-.397.047-.167.008-.336.004-.505.004H332.073c-.038-.164-.085-.295-.098-.432-.015-.189-.004-.385-.004-.578V96.222c0-.307.012-.616.017-.864.072-.074.086-.095.104-.106a.158.158 0 0 1 .069-.021c11.942-.007 23.885-.014 35.827-.019.095 0 .188.023.281.04.022.004.04.027.06.042.099.606.146 6.024.067 8.217-.004.139-.039.277-.062.43-.116.023-.206.055-.299.057-.24.008-.479.006-.721.006-7.924 0-15.846 0-23.769.002-.283 0-.567.014-.798.018-.065.072-.086.088-.097.107a.138.138 0 0 0-.02.068c-.008 3.297-.015 6.598-.019 9.895 0 .168.013.336.022.539.138.029.272.072.407.078.215.014.434.004.649.004h21.627c.034.168.085.305.085.438.004 2.793.004 5.584.003 8.381 0 .113-.022.23-.038.385-.165.021-.302.043-.437.047-.218.01-.435.002-.651.002-6.91.002-13.823 0-20.732.002-.284 0-.567.014-.804.018-.063.066-.085.084-.096.104a.139.139 0 0 0-.018.066 7462.41 7462.41 0 0 0-.019 9.463c0 .119.018.236.027.393.143.023.277.062.413.07.217.012.433.002.651.002 8.715 0 17.433 0 26.149.002.292-.002.579-.031.899.051z"/></defs><defs><path id="h" d="M70.924 30.757h.725c7.61 0 15.219.005 22.829-.003 2.201-.001 4.375.209 6.509.747 1.713.431 3.342 1.069 4.853 1.996 2.959 1.814 4.96 4.384 5.969 7.697.927 3.043.963 6.127.117 9.193-1.092 3.955-3.518 6.842-7.167 8.705-1.685.86-3.477 1.401-5.334 1.729-1.735.307-3.485.431-5.247.428-3.661-.004-7.321-.001-10.981 0-.259.001-.518.019-.825.029-.054.832-.021 1.62-.026 2.407-.007.819-.001 1.638-.001 2.456V73.367c0 .819.007 1.638-.002 2.457-.009.79.041 1.581-.04 2.414-.157.021-.292.054-.429.054-3.517.003-7.032.003-10.547 0-.139 0-.279-.024-.353-.03-.074-.067-.097-.081-.108-.101a.15.15 0 0 1-.017-.069c-.008-.192-.021-.384-.021-.576.004-15.508.007-31.016.013-46.524.001-.045.03-.088.083-.235zm11.495 22.345c.211.011.377.026.542.026 2.89 0 5.779.009 8.668-.008a22.28 22.28 0 0 0 3.382-.254c1.121-.18 2.211-.467 3.223-1.005 1.561-.829 2.529-2.111 2.925-3.83.269-1.165.288-2.344.11-3.518-.338-2.222-1.54-3.799-3.632-4.665a10.554 10.554 0 0 0-1.156-.405c-1.375-.394-2.789-.545-4.21-.558-3.154-.031-6.309-.016-9.462-.015-.137 0-.274.037-.399.055-.091.687-.085 13.538.009 14.177z"/></defs><defs><path id="i" d="M418.971 46.962c-.057-.071-.14-.158-.207-.255-1.987-2.859-4.688-4.762-7.996-5.743-5.262-1.561-10.201-.803-14.689 2.396-2.479 1.768-4.264 4.114-5.167 7.04-1.328 4.304-.575 8.293 2.106 11.887 2.105 2.821 4.938 4.625 8.319 5.535 4.084 1.098 8.062.756 11.883-1.082a14.288 14.288 0 0 0 5.895-5.178c.103-.158.22-.306.315-.442.088.005.143-.006.184.012 3.145 1.447 6.207 3.074 9.432 4.354.037.016.062.066.126.136-.047.242-.221.445-.357.662-2.208 3.483-5.11 6.247-8.662 8.332-2.999 1.763-6.228 2.885-9.664 3.429-2.487.393-4.983.504-7.486.241-6.593-.696-12.341-3.234-17.026-7.988-3.042-3.084-5.121-6.729-6.092-10.969-1.248-5.46-.521-10.67 2.137-15.592 2.267-4.198 5.561-7.408 9.672-9.79 2.944-1.706 6.107-2.808 9.469-3.354 2.533-.412 5.076-.508 7.628-.233 5.342.577 10.166 2.455 14.385 5.818a24.673 24.673 0 0 1 5.203 5.673c.107.16.209.323.308.489.021.038.021.089.034.135-.006.022-.008.047-.019.066a.117.117 0 0 1-.051.05 215.383 215.383 0 0 1-9.229 4.277c-.089.04-.178.075-.271.1-.045.014-.094 0-.18-.006z"/></defs><defs><path id="j" d="M162.118 106.154l-5.286-7.25c0-.087-.005-.113.001-.134a.144.144 0 0 1 .04-.06c1.439-1.129 2.878-2.259 4.318-3.386.054-.042.123-.065.225-.118.108.121.225.236.326.364 1.294 1.646 2.584 3.297 3.881 4.94.145.183.243.42.54.519l2.548-3.239c.59.341 1.048.802 1.55 1.2.528.419 1.042.856 1.562 1.284.498.413.994.828 1.505 1.251-.146.383-.408.635-.613.926-.223.314-.46.615-.691.926l-.648.869c-.231.307-.463.615-.693.924-.214.287-.426.578-.659.895.133.191.245.369.375.537 5.228 6.67 10.458 13.338 15.686 20.006 4.116 5.248 8.23 10.496 12.343 15.746.159.199.352.381.446.619-.074.059-.109.111-.145.111-21.67.006-43.34.01-65.01.01-.063 0-.126-.043-.18-.062-.01-.043-.022-.068-.021-.09a.151.151 0 0 1 .024-.066c.025-.043.051-.08.08-.117.073-.098.146-.193.22-.289 9.388-12.031 18.775-24.068 28.164-36.104.014-.02.025-.041.037-.062.012-.021.022-.044.075-.15zm-14.363 29.828c.062.023.127.064.191.064 11.894 0 23.788-.006 35.681-.014.039 0 .077-.047.142-.09-.055-.256-.253-.441-.403-.645-3.103-4.262-6.209-8.521-9.316-12.781-2.524-3.461-5.049-6.926-7.576-10.387-.15-.203-.266-.449-.554-.602a49306.672 49306.672 0 0 0-18.162 24.305c-.022.029-.003.088-.003.15z"/></defs><defs><path id="k" d="M402.295 104.186h-10.518c-1.728 0-3.453 0-5.165-.002-.108-.621-.144-7.429-.055-8.618.123-.026.255-.067.391-.079.167-.015.337-.004.506-.004h40.675c.285 0 .569.013.8.018.07.063.091.078.104.097a.13.13 0 0 1 .019.067c.009 2.649.018 5.297.023 7.945 0 .145-.005.287-.017.432-.004.045-.035.088-.06.143-.267.141-.56.078-.843.078-4.6.004-9.2.002-13.799.002h-.892c-.039.172-.089.305-.096.438-.015.266-.006.529-.006.797 0 12.137 0 24.273-.003 36.41 0 .311.04.625-.061.961-.143.02-.28.055-.417.055-3.323.002-6.648.002-9.972 0-.139 0-.28-.016-.462-.027-.023-.16-.056-.295-.06-.43-.011-.242-.005-.482-.005-.723 0-12.188 0-24.371-.002-36.557.002-.308.047-.625-.085-1.003z"/></defs><defs><path id="l" d="M290.609 69.129c.983.085 1.871.034 2.757.043.892.009 1.782.001 2.673.001H312.003c.892 0 1.783-.002 2.674.001.887.004 1.775-.018 2.702.019.02.228.05.415.052.6.066 4.215.03 7.528-.093 8.098-.078.016-.17.051-.261.051-12.496 0-24.992-.004-37.488-.01-.066 0-.132-.046-.196-.07-.101-.76-.147-37.571-.057-46.664.002-.188.021-.377.033-.577.117-.03.208-.073.299-.073 3.563-.001 7.127.002 10.69.009.065 0 .132.046.245.089.015 1.047.006 2.105.007 3.162.002 1.084 0 2.167 0 3.251V65.882l-.001 3.247z"/></defs><defs><path id="m" d="M342.237 78.257c-.026-.129-.057-.219-.057-.31-.004-15.693-.004-31.386-.004-47.074.273-.188.547-.112.801-.113 2.84-.007 5.681-.004 8.522-.004.528 0 1.059-.003 1.587.001.165.001.328.02.432.027.071.063.093.076.104.095a.18.18 0 0 1 .018.069c.009.192.024.384.024.575-.002 15.48-.005 30.96-.009 46.439 0 .07-.026.14-.042.212-.206.193-.459.112-.689.113-2.144.006-4.285.004-6.426.004-1.205 0-2.41.001-3.612-.003-.21.003-.421-.018-.649-.031z"/></defs><use xlink:href="#a" overflow="visible" fill-rule="evenodd" clip-rule="evenodd" fill="#FFF"/><use xlink:href="#b" overflow="visible" fill-rule="evenodd" clip-rule="evenodd" fill="#FFF"/><use xlink:href="#c" overflow="visible" fill-rule="evenodd" clip-rule="evenodd" fill="#FFF"/><use xlink:href="#d" overflow="visible" fill-rule="evenodd" clip-rule="evenodd" fill="#FFF"/><use xlink:href="#e" overflow="visible" fill-rule="evenodd" clip-rule="evenodd" fill="#FFF"/><use xlink:href="#f" overflow="visible" fill-rule="evenodd" clip-rule="evenodd" fill="#FFF"/><use xlink:href="#g" overflow="visible" fill-rule="evenodd" clip-rule="evenodd" fill="#FFF"/><use xlink:href="#h" overflow="visible" fill-rule="evenodd" clip-rule="evenodd" fill="#FFF"/><use xlink:href="#i" overflow="visible" fill-rule="evenodd" clip-rule="evenodd" fill="#FFF"/><use xlink:href="#j" overflow="visible" fill-rule="evenodd" clip-rule="evenodd" fill="#FFF"/><use xlink:href="#k" overflow="visible" fill-rule="evenodd" clip-rule="evenodd" fill="#FFF"/><use xlink:href="#l" overflow="visible" fill-rule="evenodd" clip-rule="evenodd" fill="#FFF"/><use xlink:href="#m" overflow="visible" fill-rule="evenodd" clip-rule="evenodd" fill="#FFF"/><clipPath id="n"><use xlink:href="#a" overflow="visible"/></clipPath><clipPath id="o" clip-path="url(#n)"><use xlink:href="#b" overflow="visible"/></clipPath><clipPath id="p" clip-path="url(#o)"><use xlink:href="#c" overflow="visible"/></clipPath><clipPath id="q" clip-path="url(#p)"><use xlink:href="#d" overflow="visible"/></clipPath><clipPath id="r" clip-path="url(#q)"><use xlink:href="#e" overflow="visible"/></clipPath><clipPath id="s" clip-path="url(#r)"><use xlink:href="#f" overflow="visible"/></clipPath><clipPath id="t" clip-path="url(#s)"><use xlink:href="#g" overflow="visible"/></clipPath><clipPath id="u" clip-path="url(#t)"><use xlink:href="#h" overflow="visible"/></clipPath><clipPath id="v" clip-path="url(#u)"><use xlink:href="#i" overflow="visible"/></clipPath><clipPath id="w" clip-path="url(#v)"><use xlink:href="#j" overflow="visible"/></clipPath><clipPath id="x" clip-path="url(#w)"><use xlink:href="#k" overflow="visible"/></clipPath><clipPath id="y" clip-path="url(#x)"><use xlink:href="#l" overflow="visible"/></clipPath><clipPath id="z" clip-path="url(#y)"><use xlink:href="#m" overflow="visible"/></clipPath><path clip-path="url(#z)" fill="#FFF" d="M0 0h500v200H0z"/></svg>