<svg height="30" viewBox="0 0 50 30" width="50" xmlns="http://www.w3.org/2000/svg"><g fill="none" fill-rule="evenodd"><rect fill="#006" height="30" rx="4" width="50"/><path d="m28.064 15.243c0 5.389-4.368 9.757-9.757 9.757-5.39 0-9.758-4.368-9.758-9.757 0-5.39 4.369-9.758 9.758-9.758s9.757 4.369 9.757 9.758" fill="#c00"/><path d="m31.407 5.485a9.723 9.723 0 0 0 -7.536 3.559h1.972c.27.328.517.672.744 1.033h-3.46a9.803 9.803 0 0 0 -.562 1.034h4.584c.156.334.294.679.413 1.033h-5.41a9.714 9.714 0 0 0 -.283 1.032h5.976a9.829 9.829 0 0 1 -.283 5.166h-5.41c.119.354.257.7.413 1.034h4.584a9.775 9.775 0 0 1 -.563 1.033h-3.459c.226.36.475.705.744 1.033h1.971a9.751 9.751 0 0 1 -.985 1.033 9.722 9.722 0 0 0 6.55 2.525c5.389 0 9.757-4.368 9.757-9.757s-4.368-9.758-9.757-9.758" fill="#f90"/><path d="m16.028 16.311a1.822 1.822 0 0 0 -.236-.017c-.6 0-.904.206-.904.613 0 .25.148.41.38.41.43 0 .742-.41.76-1.006zm.77 1.793h-.877l.02-.417c-.268.33-.625.487-1.11.487-.574 0-.968-.448-.968-1.1 0-.98.685-1.551 1.86-1.551.12 0 .274.011.432.03a.994.994 0 0 0 .041-.26c0-.267-.184-.367-.68-.367a3.532 3.532 0 0 0 -1.12.182l.147-.905c.527-.156.875-.213 1.267-.213.91 0 1.392.408 1.39 1.18.003.207-.032.461-.085.797-.092.583-.29 1.833-.316 2.137zm-3.378 0h-1.06l.608-3.804-1.356 3.804h-.721l-.09-3.783-.637 3.783h-.992l.828-4.949h1.524l.092 2.77.929-2.77h1.694l-.819 4.95m19.296-1.794a1.814 1.814 0 0 0 -.236-.017c-.6 0-.904.206-.904.613 0 .25.147.41.38.41.43 0 .742-.41.76-1.006zm.77 1.793h-.877l.02-.417c-.268.33-.625.487-1.11.487-.574 0-.968-.448-.968-1.1 0-.98.685-1.551 1.86-1.551.12 0 .274.011.432.03a.988.988 0 0 0 .041-.26c0-.267-.184-.367-.68-.367a3.54 3.54 0 0 0 -1.121.182c.012-.067.148-.905.148-.905.527-.156.876-.213 1.267-.213.91 0 1.392.408 1.39 1.18.002.207-.032.461-.085.797-.092.583-.29 1.833-.316 2.137zm-11.979-.061c-.29.092-.516.131-.761.131-.542 0-.837-.311-.837-.884-.008-.178.077-.646.145-1.073.061-.376.46-2.747.46-2.747h1.052l-.123.61h.636l-.144.967h-.638c-.122.765-.296 1.719-.298 1.845 0 .208.11.298.362.298.121 0 .215-.012.286-.038zm3.228-.033c-.362.111-.71.165-1.08.164-1.18-.002-1.794-.617-1.794-1.796 0-1.375.782-2.388 1.843-2.388.868 0 1.423.567 1.423 1.456 0 .295-.038.583-.13.99h-2.097c-.07.584.303.827.916.827.376 0 .716-.078 1.094-.253zm-.592-2.385c.006-.084.112-.719-.49-.719-.335 0-.575.256-.673.719zm-6.709-.273c0 .509.247.86.807 1.124.429.202.495.261.495.444 0 .25-.19.364-.608.364-.316 0-.61-.05-.95-.159l-.145.93c.24.052.456.1 1.103.119 1.117 0 1.633-.426 1.633-1.345 0-.553-.215-.878-.746-1.122-.444-.204-.495-.25-.495-.437 0-.218.176-.33.518-.33.208 0 .492.023.761.061l.15-.933a7.152 7.152 0 0 0 -.931-.078c-1.185 0-1.596.618-1.592 1.362m12.453-1.256c.294 0 .569.076.947.267l.173-1.074c-.156-.061-.702-.42-1.164-.42-.709 0-1.309.353-1.73.933-.615-.204-.868.208-1.178.618l-.275.064c.021-.135.04-.269.034-.405h-.973c-.133 1.247-.368 2.508-.553 3.755l-.048.27h1.06a68.74 68.74 0 0 0 .332-2.383l.4-.221c.06-.222.245-.297.62-.288a4.509 4.509 0 0 0 -.076.825c0 1.317.712 2.137 1.852 2.137.294 0 .546-.039.936-.145l.186-1.128c-.351.173-.639.254-.9.254-.615 0-.988-.455-.988-1.206 0-1.09.554-1.853 1.345-1.853m8.969-.941-.236 1.43c-.29-.381-.6-.657-1.011-.657-.534 0-1.021.405-1.34 1.002-.443-.092-.902-.249-.902-.249v.004a5.96 5.96 0 0 0 .047-.606h-.973c-.133 1.247-.368 2.508-.552 3.755l-.05.27h1.061c.143-.928.252-1.7.333-2.312.362-.328.544-.613.91-.594a3.45 3.45 0 0 0 -.258 1.306c0 1.006.509 1.67 1.28 1.67.388 0 .686-.134.976-.444l-.05.374h1.002l.807-4.949zm-1.325 4.02c-.36 0-.543-.268-.543-.794 0-.791.34-1.352.821-1.352.364 0 .562.277.562.788 0 .798-.347 1.358-.84 1.358z" fill="#006"/><path d="m13.725 17.81h-1.06l.608-3.804-1.355 3.805h-.723l-.089-3.783-.638 3.783h-.991l.828-4.95h1.523l.043 3.064 1.028-3.063h1.645l-.82 4.949m2.609-1.793a1.761 1.761 0 0 0 -.236-.017c-.6 0-.904.206-.904.613 0 .25.148.41.38.41.43 0 .742-.41.76-1.006zm.77 1.793h-.877l.02-.417c-.268.33-.625.487-1.11.487-.574 0-.968-.45-.968-1.1 0-.98.685-1.551 1.86-1.551.12 0 .274.01.432.03a.999.999 0 0 0 .04-.26c0-.267-.184-.366-.68-.366a3.519 3.519 0 0 0 -1.12.18l.146-.905c.528-.155.876-.213 1.268-.213.91 0 1.392.409 1.39 1.18.002.207-.032.463-.085.798-.092.582-.29 1.833-.316 2.137zm14.209-4.816-.174 1.074c-.378-.19-.652-.267-.946-.267-.79 0-1.346.764-1.346 1.855 0 .75.373 1.204.99 1.204.26 0 .548-.08.899-.253l-.186 1.127c-.39.107-.643.146-.936.146-1.141 0-1.851-.82-1.851-2.137 0-1.77.982-3.006 2.386-3.006.462 0 1.008.196 1.164.257m1.708 3.023a1.748 1.748 0 0 0 -.235-.017c-.6 0-.904.206-.904.613 0 .25.148.41.38.41.43 0 .742-.41.76-1.006zm.772 1.793h-.878l.02-.417c-.268.33-.625.487-1.11.487-.575 0-.968-.45-.968-1.1 0-.98.684-1.551 1.86-1.551.12 0 .274.01.431.03a.994.994 0 0 0 .042-.26c0-.267-.184-.366-.68-.366a3.52 3.52 0 0 0 -1.12.18l.146-.905c.528-.155.876-.213 1.268-.213.91 0 1.392.409 1.39 1.18.003.207-.032.463-.085.798-.092.582-.29 1.833-.316 2.137zm-11.981-.061a2.42 2.42 0 0 1 -.76.13c-.542 0-.838-.31-.838-.883-.007-.179.078-.646.146-1.073.06-.377.459-2.747.459-2.747h1.053l-.123.609h.54l-.144.967h-.542c-.122.766-.297 1.72-.299 1.846 0 .208.111.298.363.298.121 0 .214-.012.286-.038l-.14.89m3.228-.031c-.362.11-.711.163-1.08.163-1.18-.001-1.794-.617-1.794-1.796 0-1.376.782-2.39 1.843-2.39.868 0 1.423.568 1.423 1.458 0 .295-.039.583-.13.99h-2.097c-.07.584.303.827.915.827.377 0 .717-.078 1.095-.254zm-.592-2.387c.006-.084.112-.719-.49-.719-.335 0-.575.257-.673.719zm-6.709-.273c0 .51.247.86.807 1.124.429.202.495.262.495.445 0 .25-.189.364-.608.364-.316 0-.61-.05-.95-.159l-.145.93c.24.052.456.1 1.102.119 1.118 0 1.634-.426 1.634-1.346 0-.553-.216-.877-.746-1.121-.444-.204-.495-.25-.495-.438 0-.217.176-.33.518-.33.208 0 .492.024.761.062l.15-.933a7.21 7.21 0 0 0 -.931-.08c-1.186 0-1.596.62-1.592 1.363m21.659 2.752h-1.002l.05-.374c-.29.31-.588.445-.977.445-.77 0-1.279-.664-1.279-1.67 0-1.34.79-2.468 1.724-2.468.41 0 .722.168 1.011.55l.235-1.431h1.045l-.807 4.949zm-1.563-.93c.494 0 .84-.558.84-1.355 0-.512-.197-.79-.56-.79-.481 0-.822.561-.822 1.353 0 .526.182.793.542.793zm-3.089-3.094c-.133 1.246-.368 2.507-.553 3.754l-.048.27h1.06c.379-2.46.47-2.94 1.064-2.88.095-.505.271-.946.402-1.168-.443-.093-.691.158-1.016.634.026-.206.073-.406.064-.61zm-8.72 0c-.133 1.246-.37 2.507-.553 3.754l-.048.27h1.06c.379-2.46.47-2.94 1.063-2.88.095-.505.272-.946.403-1.168-.443-.093-.691.158-1.016.634.026-.206.073-.406.064-.61z" fill="#fff"/></g></svg>