<svg height="30" viewBox="0 0 50 30" width="50" xmlns="http://www.w3.org/2000/svg"><g fill="none" fill-rule="evenodd"><rect fill="#26337a" height="30" rx="4" width="50"/><path d="m20.745 19.773 1.537-9.537h2.458l-1.537 9.537zm11.371-9.303a6.075 6.075 0 0 0 -2.202-.4c-2.43 0-4.14 1.295-4.154 3.148-.015 1.37 1.22 2.135 2.152 2.59.958.468 1.28.767 1.276 1.184-.007.639-.764.932-1.47.932-.985 0-1.507-.144-2.316-.5l-.316-.152-.343 2.134c.573.266 1.635.497 2.737.509 2.583 0 4.26-1.279 4.28-3.258.009-1.087-.646-1.91-2.064-2.591-.859-.442-1.386-.735-1.38-1.183 0-.396.445-.82 1.408-.82a4.31 4.31 0 0 1 1.839.366l.22.109zm3.273 5.922c.203-.548.979-2.666.979-2.666-.015.026.202-.552.326-.91l.166.823s.472 2.276.569 2.753zm3.031-6.146h-1.899c-.589 0-1.03.169-1.288.79l-3.65 8.74h2.582s.421-1.175.517-1.433l3.147.005c.074.333.3 1.429.3 1.429h2.28l-1.989-9.53zm-19.737-.002-2.405 6.502-.258-1.321c-.448-1.523-1.843-3.174-3.404-4l2.2 8.34 2.602-.001 3.87-9.52z" fill="#fffffe"/><path d="m14.045 10.238h-3.963l-.032.197c3.083.79 5.124 2.697 5.97 4.99l-.86-4.382c-.15-.605-.581-.784-1.115-.805" fill="#ec982d"/></g></svg>